<svg width="1280" height="720" xmlns="http://www.w3.org/2000/svg" xmlns:xlink="http://www.w3.org/1999/xlink" overflow="hidden"><defs><clipPath id="clip0"><rect x="767" y="89" width="53" height="124"/></clipPath><clipPath id="clip1"><rect x="664" y="89" width="52" height="124"/></clipPath><clipPath id="clip2"><rect x="767" y="181" width="53" height="124"/></clipPath><clipPath id="clip3"><rect x="664" y="181" width="52" height="124"/></clipPath><clipPath id="clip4"><rect x="767" y="273" width="53" height="124"/></clipPath><clipPath id="clip5"><rect x="664" y="273" width="52" height="124"/></clipPath></defs><g><rect x="0" y="0" width="1280" height="720" fill="#FFFFFF"/><rect x="71" y="99" width="176" height="94" stroke="#042433" stroke-width="2" stroke-miterlimit="8" fill="#7F7F7F"/><text fill="#FFFFFF" font-family="Cambria Math,Cambria Math_MSFontService,sans-serif" font-weight="400" font-size="24" transform="translate(143.937 154)">𝑋</text><text fill="#FFFFFF" font-family="Cambria Math,Cambria Math_MSFontService,sans-serif" font-weight="400" font-size="18" transform="translate(157.83 158)">1</text><rect x="71" y="193" width="176" height="94" stroke="#042433" stroke-width="2" stroke-miterlimit="8" fill="#7F7F7F"/><text fill="#FFFFFF" font-family="Cambria Math,Cambria Math_MSFontService,sans-serif" font-weight="400" font-size="24" transform="translate(143.66 248)">𝑋</text><text fill="#FFFFFF" font-family="Cambria Math,Cambria Math_MSFontService,sans-serif" font-weight="400" font-size="18" transform="translate(158.107 253)">2</text><rect x="71" y="287" width="176" height="94" stroke="#042433" stroke-width="2" stroke-miterlimit="8" fill="#7F7F7F"/><text fill="#FFFFFF" font-family="Cambria Math,Cambria Math_MSFontService,sans-serif" font-weight="400" font-size="24" transform="translate(143.66 342)">𝑋</text><text fill="#FFFFFF" font-family="Cambria Math,Cambria Math_MSFontService,sans-serif" font-weight="400" font-size="18" transform="translate(158.107 347)">3</text><text fill="#E97132" font-family="Cambria Math,Cambria Math_MSFontService,sans-serif" font-weight="400" font-size="24" transform="translate(368.84 139)">𝜋</text><text fill="#E97132" font-family="Cambria Math,Cambria Math_MSFontService,sans-serif" font-weight="400" font-size="18" transform="translate(383.007 144)">‐</text><text fill="#E97132" font-family="Cambria Math,Cambria Math_MSFontService,sans-serif" font-weight="400" font-size="18" transform="translate(388.84 144)">1</text><text fill="#E97132" font-family="Cambria Math,Cambria Math_MSFontService,sans-serif" font-weight="400" font-size="24" transform="translate(365.84 168)">𝑚</text><text fill="#E97132" font-family="Cambria Math,Cambria Math_MSFontService,sans-serif" font-weight="400" font-size="18" transform="translate(386.007 173)">‐</text><text fill="#E97132" font-family="Cambria Math,Cambria Math_MSFontService,sans-serif" font-weight="400" font-size="18" transform="translate(391.84 173)">1</text><text fill="#0F9ED5" font-family="Cambria Math,Cambria Math_MSFontService,sans-serif" font-weight="400" font-size="24" transform="translate(368.84 233)">𝜋</text><text fill="#0F9ED5" font-family="Cambria Math,Cambria Math_MSFontService,sans-serif" font-weight="400" font-size="18" transform="translate(383.007 238)">‐</text><text fill="#0F9ED5" font-family="Cambria Math,Cambria Math_MSFontService,sans-serif" font-weight="400" font-size="18" transform="translate(388.84 238)">2</text><text fill="#0F9ED5" font-family="Cambria Math,Cambria Math_MSFontService,sans-serif" font-weight="400" font-size="24" transform="translate(365.84 262)">𝑚</text><text fill="#0F9ED5" font-family="Cambria Math,Cambria Math_MSFontService,sans-serif" font-weight="400" font-size="18" transform="translate(386.007 267)">‐</text><text fill="#0F9ED5" font-family="Cambria Math,Cambria Math_MSFontService,sans-serif" font-weight="400" font-size="18" transform="translate(391.84 267)">2</text><text fill="#4EA72E" font-family="Cambria Math,Cambria Math_MSFontService,sans-serif" font-weight="400" font-size="24" transform="translate(368.84 320)">𝜋</text><text fill="#4EA72E" font-family="Cambria Math,Cambria Math_MSFontService,sans-serif" font-weight="400" font-size="18" transform="translate(383.007 325)">‐</text><text fill="#4EA72E" font-family="Cambria Math,Cambria Math_MSFontService,sans-serif" font-weight="400" font-size="18" transform="translate(388.84 325)">3</text><text fill="#4EA72E" font-family="Cambria Math,Cambria Math_MSFontService,sans-serif" font-weight="400" font-size="24" transform="translate(365.84 349)">𝑚</text><text fill="#4EA72E" font-family="Cambria Math,Cambria Math_MSFontService,sans-serif" font-weight="400" font-size="18" transform="translate(386.007 354)">‐</text><text fill="#4EA72E" font-family="Cambria Math,Cambria Math_MSFontService,sans-serif" font-weight="400" font-size="18" transform="translate(391.84 354)">3</text><path d="M460.8 104.581 512.427 104.581 512.427 196.761 460.8 196.761Z" fill="#E97132" fill-rule="evenodd"/><path d="M512.427 104.581 564.054 104.581 564.054 196.761 512.427 196.761Z" fill="#595959" fill-rule="evenodd"/><path d="M564.054 104.581 615.68 104.581 615.68 196.761 564.054 196.761Z" fill="#595959" fill-rule="evenodd"/><path d="M460.8 196.761 512.427 196.761 512.427 288.94 460.8 288.94Z" fill="#595959" fill-rule="evenodd"/><path d="M512.427 196.761 564.054 196.761 564.054 288.94 512.427 288.94Z" fill="#0F9ED5" fill-rule="evenodd"/><path d="M564.054 196.761 615.68 196.761 615.68 288.94 564.054 288.94Z" fill="#595959" fill-rule="evenodd"/><path d="M460.8 288.94 512.427 288.94 512.427 381.12 460.8 381.12Z" fill="#595959" fill-rule="evenodd"/><path d="M512.427 288.94 564.054 288.94 564.054 381.12 512.427 381.12Z" fill="#595959" fill-rule="evenodd"/><path d="M564.054 288.94 615.68 288.94 615.68 381.12 564.054 381.12Z" fill="#4EA72E" fill-rule="evenodd"/><path d="M512.427 103.914 512.427 381.787" stroke="#7F7F7F" stroke-width="1.33333" stroke-linejoin="round" stroke-miterlimit="10" fill="none" fill-rule="evenodd"/><path d="M564.054 103.914 564.054 381.787" stroke="#7F7F7F" stroke-width="1.33333" stroke-linejoin="round" stroke-miterlimit="10" fill="none" fill-rule="evenodd"/><path d="M460.133 104.581 616.347 104.581" stroke="#7F7F7F" stroke-width="1.33333" stroke-linejoin="round" stroke-miterlimit="10" fill="none" fill-rule="evenodd"/><path d="M460.133 196.761 616.347 196.761" stroke="#7F7F7F" stroke-width="1.33333" stroke-linejoin="round" stroke-miterlimit="10" fill="none" fill-rule="evenodd"/><path d="M460.133 288.94 616.347 288.94" stroke="#7F7F7F" stroke-width="1.33333" stroke-linejoin="round" stroke-miterlimit="10" fill="none" fill-rule="evenodd"/><path d="M460.8 103.914 460.8 381.787" stroke="#7F7F7F" stroke-width="1.33333" stroke-linejoin="round" stroke-miterlimit="10" fill="none" fill-rule="evenodd"/><path d="M615.68 103.914 615.68 381.787" stroke="#7F7F7F" stroke-width="1.33333" stroke-linejoin="round" stroke-miterlimit="10" fill="none" fill-rule="evenodd"/><path d="M460.133 381.12 616.347 381.12" stroke="#7F7F7F" stroke-width="1.33333" stroke-linejoin="round" stroke-miterlimit="10" fill="none" fill-rule="evenodd"/><text fill="#4EA72E" font-family="Cambria Math,Cambria Math_MSFontService,sans-serif" font-weight="400" font-size="24" transform="translate(574.24 93)">𝜋</text><text fill="#4EA72E" font-family="Cambria Math,Cambria Math_MSFontService,sans-serif" font-weight="400" font-size="18" transform="translate(588.407 98)">‐</text><text fill="#4EA72E" font-family="Cambria Math,Cambria Math_MSFontService,sans-serif" font-weight="400" font-size="18" transform="translate(594.24 98)">3</text><text fill="#0F9ED5" font-family="Cambria Math,Cambria Math_MSFontService,sans-serif" font-weight="400" font-size="24" transform="translate(522.613 93)">𝜋</text><text fill="#0F9ED5" font-family="Cambria Math,Cambria Math_MSFontService,sans-serif" font-weight="400" font-size="18" transform="translate(536.78 98)">‐</text><text fill="#0F9ED5" font-family="Cambria Math,Cambria Math_MSFontService,sans-serif" font-weight="400" font-size="18" transform="translate(542.613 98)">2</text><text fill="#E97132" font-family="Cambria Math,Cambria Math_MSFontService,sans-serif" font-weight="400" font-size="24" transform="translate(470.987 93)">𝜋</text><text fill="#E97132" font-family="Cambria Math,Cambria Math_MSFontService,sans-serif" font-weight="400" font-size="18" transform="translate(485.153 98)">‐</text><text fill="#E97132" font-family="Cambria Math,Cambria Math_MSFontService,sans-serif" font-weight="400" font-size="18" transform="translate(490.987 98)">1</text><g><text fill="#E8E8E8" font-family="Cambria Math,Cambria Math_MSFontService,sans-serif" font-weight="400" font-size="15" transform="translate(565.167 156)">𝜋</text></g><text fill="#E8E8E8" font-family="Cambria Math,Cambria Math_MSFontService,sans-serif" font-weight="400" font-size="11" transform="translate(573.834 159)">‐</text><text fill="#E8E8E8" font-family="Cambria Math,Cambria Math_MSFontService,sans-serif" font-weight="400" font-size="11" transform="translate(577.334 159)">3</text><g><path d="M605.956 144.654C607.382 145.03 608.477 145.842 609.241 147.089 610.005 148.337 610.388 149.842 610.388 151.604 610.388 153.372 610.007 154.877 609.245 156.12 608.483 157.363 607.387 158.172 605.956 158.548L605.781 157.984C606.909 157.608 607.747 156.866 608.296 155.757 608.846 154.649 609.12 153.24 609.12 151.531 609.12 149.881 608.847 148.51 608.3 147.419 607.753 146.327 606.906 145.594 605.759 145.218ZM589.856 144.654 590.054 145.218C588.912 145.594 588.066 146.327 587.516 147.419 586.967 148.51 586.692 149.881 586.692 151.531 586.692 153.24 586.967 154.649 587.516 155.757 588.066 156.866 588.904 157.608 590.032 157.984L589.856 158.548C588.426 158.172 587.33 157.363 586.568 156.12 585.806 154.877 585.425 153.372 585.425 151.604 585.425 149.842 585.807 148.337 586.572 147.089 587.336 145.842 588.431 145.03 589.856 144.654Z" fill="#E8E8E8" fill-rule="evenodd"/></g><text fill="#E8E8E8" font-family="Cambria Math,Cambria Math_MSFontService,sans-serif" font-weight="400" font-size="15" transform="translate(590.194 156)">𝑋</text><text fill="#E8E8E8" font-family="Cambria Math,Cambria Math_MSFontService,sans-serif" font-weight="400" font-size="11" transform="translate(598.707 159)">1</text><g><text fill="#E8E8E8" font-family="Cambria Math,Cambria Math_MSFontService,sans-serif" font-weight="400" font-size="15" transform="translate(513.54 156)">𝜋</text></g><text fill="#E8E8E8" font-family="Cambria Math,Cambria Math_MSFontService,sans-serif" font-weight="400" font-size="11" transform="translate(522.207 159)">‐</text><text fill="#E8E8E8" font-family="Cambria Math,Cambria Math_MSFontService,sans-serif" font-weight="400" font-size="11" transform="translate(525.707 159)">2</text><g><path d="M554.33 144.654C555.755 145.03 556.85 145.842 557.615 147.089 558.379 148.337 558.761 149.842 558.761 151.604 558.761 153.372 558.38 154.877 557.618 156.12 556.856 157.363 555.76 158.172 554.33 158.548L554.154 157.984C555.282 157.608 556.12 156.866 556.67 155.757 557.219 154.649 557.494 153.24 557.494 151.531 557.494 149.881 557.22 148.51 556.673 147.419 556.126 146.327 555.279 145.594 554.132 145.218ZM538.23 144.654 538.427 145.218C537.285 145.594 536.439 146.327 535.89 147.419 535.34 148.51 535.066 149.881 535.066 151.531 535.066 153.24 535.34 154.649 535.89 155.757 536.439 156.866 537.278 157.608 538.405 157.984L538.23 158.548C536.799 158.172 535.703 157.363 534.941 156.12 534.179 154.877 533.799 153.372 533.799 151.604 533.799 149.842 534.181 148.337 534.945 147.089 535.709 145.842 536.804 145.03 538.23 144.654Z" fill="#E8E8E8" fill-rule="evenodd"/></g><text fill="#E8E8E8" font-family="Cambria Math,Cambria Math_MSFontService,sans-serif" font-weight="400" font-size="15" transform="translate(538.567 156)">𝑋</text><text fill="#E8E8E8" font-family="Cambria Math,Cambria Math_MSFontService,sans-serif" font-weight="400" font-size="11" transform="translate(547.08 159)">1</text><g><text fill="#E8E8E8" font-family="Cambria Math,Cambria Math_MSFontService,sans-serif" font-weight="400" font-size="15" transform="translate(461.83 156)">𝜋</text></g><text fill="#E8E8E8" font-family="Cambria Math,Cambria Math_MSFontService,sans-serif" font-weight="400" font-size="11" transform="translate(470.497 159)">‐</text><text fill="#E8E8E8" font-family="Cambria Math,Cambria Math_MSFontService,sans-serif" font-weight="400" font-size="11" transform="translate(473.997 159)">1</text><g><path d="M502.619 144.654C504.045 145.03 505.14 145.842 505.904 147.089 506.668 148.337 507.051 149.842 507.051 151.604 507.051 153.372 506.67 154.877 505.908 156.12 505.146 157.363 504.05 158.172 502.619 158.548L502.444 157.984C503.572 157.608 504.41 156.866 504.96 155.757 505.509 154.649 505.783 153.24 505.783 151.531 505.783 149.881 505.51 148.51 504.963 147.419 504.416 146.327 503.569 145.594 502.422 145.218ZM486.52 144.654 486.717 145.218C485.575 145.594 484.729 146.327 484.179 147.419 483.63 148.51 483.355 149.881 483.355 151.531 483.355 153.24 483.63 154.649 484.179 155.757 484.729 156.866 485.567 157.608 486.695 157.984L486.52 158.548C485.089 158.172 483.993 157.363 483.231 156.12 482.469 154.877 482.088 153.372 482.088 151.604 482.088 149.842 482.47 148.337 483.235 147.089 483.999 145.842 485.094 145.03 486.52 144.654Z" fill="#E8E8E8" fill-rule="evenodd"/></g><text fill="#E8E8E8" font-family="Cambria Math,Cambria Math_MSFontService,sans-serif" font-weight="400" font-size="15" transform="translate(486.857 156)">𝑋</text><text fill="#E8E8E8" font-family="Cambria Math,Cambria Math_MSFontService,sans-serif" font-weight="400" font-size="11" transform="translate(495.37 159)">1</text><g><text fill="#E8E8E8" font-family="Cambria Math,Cambria Math_MSFontService,sans-serif" font-weight="400" font-size="15" transform="translate(564.997 248)">𝜋</text></g><text fill="#E8E8E8" font-family="Cambria Math,Cambria Math_MSFontService,sans-serif" font-weight="400" font-size="11" transform="translate(573.664 251)">‐</text><text fill="#E8E8E8" font-family="Cambria Math,Cambria Math_MSFontService,sans-serif" font-weight="400" font-size="11" transform="translate(577.164 251)">3</text><g><path d="M606.126 236.834C607.552 237.21 608.647 238.021 609.411 239.269 610.175 240.516 610.557 242.022 610.557 243.784 610.557 245.552 610.177 247.057 609.415 248.3 608.653 249.542 607.557 250.352 606.126 250.728L605.951 250.164C607.078 249.788 607.917 249.046 608.466 247.937 609.016 246.829 609.29 245.42 609.29 243.711 609.29 242.061 609.017 240.69 608.47 239.599 607.923 238.507 607.076 237.774 605.929 237.398ZM589.686 236.834 589.884 237.398C588.742 237.774 587.896 238.507 587.346 239.599 586.797 240.69 586.522 242.061 586.522 243.711 586.522 245.42 586.797 246.829 587.346 247.937 587.896 249.046 588.734 249.788 589.862 250.164L589.686 250.728C588.256 250.352 587.16 249.542 586.398 248.3 585.636 247.057 585.255 245.552 585.255 243.784 585.255 242.022 585.637 240.516 586.401 239.269 587.166 238.021 588.261 237.21 589.686 236.834Z" fill="#E8E8E8" fill-rule="evenodd"/></g><text fill="#E8E8E8" font-family="Cambria Math,Cambria Math_MSFontService,sans-serif" font-weight="400" font-size="15" transform="translate(590.024 248)">𝑋</text><text fill="#E8E8E8" font-family="Cambria Math,Cambria Math_MSFontService,sans-serif" font-weight="400" font-size="11" transform="translate(598.877 251)">2</text><g><text fill="#E8E8E8" font-family="Cambria Math,Cambria Math_MSFontService,sans-serif" font-weight="400" font-size="15" transform="translate(513.37 248)">𝜋</text></g><text fill="#E8E8E8" font-family="Cambria Math,Cambria Math_MSFontService,sans-serif" font-weight="400" font-size="11" transform="translate(522.037 251)">‐</text><text fill="#E8E8E8" font-family="Cambria Math,Cambria Math_MSFontService,sans-serif" font-weight="400" font-size="11" transform="translate(525.537 251)">2</text><g><path d="M554.5 236.834C555.925 237.21 557.02 238.021 557.784 239.269 558.549 240.516 558.931 242.022 558.931 243.784 558.931 245.552 558.55 247.057 557.788 248.3 557.026 249.542 555.93 250.352 554.5 250.728L554.324 250.164C555.452 249.788 556.29 249.046 556.84 247.937 557.389 246.829 557.664 245.42 557.664 243.711 557.664 242.061 557.39 240.69 556.843 239.599 556.296 238.507 555.449 237.774 554.302 237.398ZM538.06 236.834 538.257 237.398C537.115 237.774 536.269 238.507 535.72 239.599 535.17 240.69 534.896 242.061 534.896 243.711 534.896 245.42 535.17 246.829 535.72 247.937 536.269 249.046 537.107 249.788 538.235 250.164L538.06 250.728C536.629 250.352 535.533 249.542 534.771 248.3 534.009 247.057 533.628 245.552 533.628 243.784 533.628 242.022 534.011 240.516 534.775 239.269 535.539 238.021 536.634 237.21 538.06 236.834Z" fill="#E8E8E8" fill-rule="evenodd"/></g><text fill="#E8E8E8" font-family="Cambria Math,Cambria Math_MSFontService,sans-serif" font-weight="400" font-size="15" transform="translate(538.397 248)">𝑋</text><text fill="#E8E8E8" font-family="Cambria Math,Cambria Math_MSFontService,sans-serif" font-weight="400" font-size="11" transform="translate(547.25 251)">2</text><g><text fill="#E8E8E8" font-family="Cambria Math,Cambria Math_MSFontService,sans-serif" font-weight="400" font-size="15" transform="translate(461.743 248)">𝜋</text></g><text fill="#E8E8E8" font-family="Cambria Math,Cambria Math_MSFontService,sans-serif" font-weight="400" font-size="11" transform="translate(470.41 251)">‐</text><text fill="#E8E8E8" font-family="Cambria Math,Cambria Math_MSFontService,sans-serif" font-weight="400" font-size="11" transform="translate(473.91 251)">1</text><g><path d="M502.873 236.834C504.299 237.21 505.393 238.021 506.158 239.269 506.922 240.516 507.304 242.022 507.304 243.784 507.304 245.552 506.923 247.057 506.161 248.3 505.4 249.542 504.303 250.352 502.873 250.728L502.697 250.164C503.825 249.788 504.664 249.046 505.213 247.937 505.762 246.829 506.037 245.42 506.037 243.711 506.037 242.061 505.763 240.69 505.216 239.599 504.67 238.507 503.822 237.774 502.675 237.398ZM486.433 236.834 486.631 237.398C485.488 237.774 484.642 238.507 484.093 239.599 483.543 240.69 483.269 242.061 483.269 243.711 483.269 245.42 483.543 246.829 484.093 247.937 484.642 249.046 485.481 249.788 486.609 250.164L486.433 250.728C485.002 250.352 483.906 249.542 483.144 248.3 482.383 247.057 482.002 245.552 482.002 243.784 482.002 242.022 482.384 240.516 483.148 239.269 483.912 238.021 485.007 237.21 486.433 236.834Z" fill="#E8E8E8" fill-rule="evenodd"/></g><text fill="#E8E8E8" font-family="Cambria Math,Cambria Math_MSFontService,sans-serif" font-weight="400" font-size="15" transform="translate(486.77 248)">𝑋</text><text fill="#E8E8E8" font-family="Cambria Math,Cambria Math_MSFontService,sans-serif" font-weight="400" font-size="11" transform="translate(495.623 251)">2</text><g><text fill="#E8E8E8" font-family="Cambria Math,Cambria Math_MSFontService,sans-serif" font-weight="400" font-size="15" transform="translate(564.997 340)">𝜋</text></g><text fill="#E8E8E8" font-family="Cambria Math,Cambria Math_MSFontService,sans-serif" font-weight="400" font-size="11" transform="translate(573.664 343)">‐</text><text fill="#E8E8E8" font-family="Cambria Math,Cambria Math_MSFontService,sans-serif" font-weight="400" font-size="11" transform="translate(577.164 343)">3</text><g><path d="M606.126 329.013C607.552 329.389 608.647 330.201 609.411 331.449 610.175 332.696 610.557 334.201 610.557 335.964 610.557 337.732 610.177 339.237 609.415 340.48 608.653 341.722 607.557 342.532 606.126 342.908L605.951 342.344C607.078 341.968 607.917 341.225 608.466 340.117 609.016 339.009 609.29 337.6 609.29 335.891 609.29 334.241 609.017 332.87 608.47 331.778 607.923 330.687 607.076 329.953 605.929 329.577ZM589.686 329.013 589.884 329.577C588.742 329.953 587.896 330.687 587.346 331.778 586.797 332.87 586.522 334.241 586.522 335.891 586.522 337.6 586.797 339.009 587.346 340.117 587.896 341.225 588.734 341.968 589.862 342.344L589.686 342.908C588.256 342.532 587.16 341.722 586.398 340.48 585.636 339.237 585.255 337.732 585.255 335.964 585.255 334.201 585.637 332.696 586.401 331.449 587.166 330.201 588.261 329.389 589.686 329.013Z" fill="#E8E8E8" fill-rule="evenodd"/></g><text fill="#E8E8E8" font-family="Cambria Math,Cambria Math_MSFontService,sans-serif" font-weight="400" font-size="15" transform="translate(590.024 340)">𝑋</text><text fill="#E8E8E8" font-family="Cambria Math,Cambria Math_MSFontService,sans-serif" font-weight="400" font-size="11" transform="translate(598.877 343)">3</text><g><text fill="#E8E8E8" font-family="Cambria Math,Cambria Math_MSFontService,sans-serif" font-weight="400" font-size="15" transform="translate(513.37 340)">𝜋</text></g><text fill="#E8E8E8" font-family="Cambria Math,Cambria Math_MSFontService,sans-serif" font-weight="400" font-size="11" transform="translate(522.037 343)">‐</text><text fill="#E8E8E8" font-family="Cambria Math,Cambria Math_MSFontService,sans-serif" font-weight="400" font-size="11" transform="translate(525.537 343)">2</text><g><path d="M554.5 329.013C555.925 329.389 557.02 330.201 557.784 331.449 558.549 332.696 558.931 334.201 558.931 335.964 558.931 337.732 558.55 339.237 557.788 340.48 557.026 341.722 555.93 342.532 554.5 342.908L554.324 342.344C555.452 341.968 556.29 341.225 556.84 340.117 557.389 339.009 557.664 337.6 557.664 335.891 557.664 334.241 557.39 332.87 556.843 331.778 556.296 330.687 555.449 329.953 554.302 329.577ZM538.06 329.013 538.257 329.577C537.115 329.953 536.269 330.687 535.72 331.778 535.17 332.87 534.896 334.241 534.896 335.891 534.896 337.6 535.17 339.009 535.72 340.117 536.269 341.225 537.107 341.968 538.235 342.344L538.06 342.908C536.629 342.532 535.533 341.722 534.771 340.48 534.009 339.237 533.628 337.732 533.628 335.964 533.628 334.201 534.011 332.696 534.775 331.449 535.539 330.201 536.634 329.389 538.06 329.013Z" fill="#E8E8E8" fill-rule="evenodd"/></g><text fill="#E8E8E8" font-family="Cambria Math,Cambria Math_MSFontService,sans-serif" font-weight="400" font-size="15" transform="translate(538.397 340)">𝑋</text><text fill="#E8E8E8" font-family="Cambria Math,Cambria Math_MSFontService,sans-serif" font-weight="400" font-size="11" transform="translate(547.25 343)">3</text><g><text fill="#E8E8E8" font-family="Cambria Math,Cambria Math_MSFontService,sans-serif" font-weight="400" font-size="15" transform="translate(461.743 340)">𝜋</text></g><text fill="#E8E8E8" font-family="Cambria Math,Cambria Math_MSFontService,sans-serif" font-weight="400" font-size="11" transform="translate(470.41 343)">‐</text><text fill="#E8E8E8" font-family="Cambria Math,Cambria Math_MSFontService,sans-serif" font-weight="400" font-size="11" transform="translate(473.91 343)">1</text><g><path d="M502.873 329.013C504.299 329.389 505.393 330.201 506.158 331.449 506.922 332.696 507.304 334.201 507.304 335.964 507.304 337.732 506.923 339.237 506.161 340.48 505.4 341.722 504.303 342.532 502.873 342.908L502.697 342.344C503.825 341.968 504.664 341.225 505.213 340.117 505.762 339.009 506.037 337.6 506.037 335.891 506.037 334.241 505.763 332.87 505.216 331.778 504.67 330.687 503.822 329.953 502.675 329.577ZM486.433 329.013 486.631 329.577C485.488 329.953 484.642 330.687 484.093 331.778 483.543 332.87 483.269 334.241 483.269 335.891 483.269 337.6 483.543 339.009 484.093 340.117 484.642 341.225 485.481 341.968 486.609 342.344L486.433 342.908C485.002 342.532 483.906 341.722 483.144 340.48 482.383 339.237 482.002 337.732 482.002 335.964 482.002 334.201 482.384 332.696 483.148 331.449 483.912 330.201 485.007 329.389 486.433 329.013Z" fill="#E8E8E8" fill-rule="evenodd"/></g><text fill="#E8E8E8" font-family="Cambria Math,Cambria Math_MSFontService,sans-serif" font-weight="400" font-size="15" transform="translate(486.77 340)">𝑋</text><text fill="#E8E8E8" font-family="Cambria Math,Cambria Math_MSFontService,sans-serif" font-weight="400" font-size="11" transform="translate(495.623 343)">3</text><path d="M664.32 104.58 715.947 104.58 715.947 196.76 664.32 196.76Z" fill="#E97132" fill-rule="evenodd"/><path d="M715.947 104.58 767.573 104.58 767.573 196.76 715.947 196.76Z" fill="#595959" fill-rule="evenodd"/><path d="M767.573 104.58 819.2 104.58 819.2 196.76 767.573 196.76Z" fill="#595959" fill-rule="evenodd"/><path d="M664.32 196.76 715.947 196.76 715.947 288.94 664.32 288.94Z" fill="#595959" fill-rule="evenodd"/><path d="M715.947 196.76 767.573 196.76 767.573 288.94 715.947 288.94Z" fill="#0F9ED5" fill-rule="evenodd"/><path d="M767.573 196.76 819.2 196.76 819.2 288.94 767.573 288.94Z" fill="#595959" fill-rule="evenodd"/><path d="M664.32 288.94 715.947 288.94 715.947 381.12 664.32 381.12Z" fill="#595959" fill-rule="evenodd"/><path d="M715.947 288.94 767.573 288.94 767.573 381.12 715.947 381.12Z" fill="#595959" fill-rule="evenodd"/><path d="M767.573 288.94 819.2 288.94 819.2 381.12 767.573 381.12Z" fill="#4EA72E" fill-rule="evenodd"/><path d="M715.947 103.914 715.947 381.787" stroke="#7F7F7F" stroke-width="1.33333" stroke-linejoin="round" stroke-miterlimit="10" fill="none" fill-rule="evenodd"/><path d="M767.573 103.914 767.573 381.787" stroke="#7F7F7F" stroke-width="1.33333" stroke-linejoin="round" stroke-miterlimit="10" fill="none" fill-rule="evenodd"/><path d="M663.653 104.58 819.867 104.58" stroke="#7F7F7F" stroke-width="1.33333" stroke-linejoin="round" stroke-miterlimit="10" fill="none" fill-rule="evenodd"/><path d="M663.653 196.76 819.867 196.76" stroke="#7F7F7F" stroke-width="1.33333" stroke-linejoin="round" stroke-miterlimit="10" fill="none" fill-rule="evenodd"/><path d="M663.653 288.94 819.867 288.94" stroke="#7F7F7F" stroke-width="1.33333" stroke-linejoin="round" stroke-miterlimit="10" fill="none" fill-rule="evenodd"/><path d="M664.32 103.914 664.32 381.787" stroke="#7F7F7F" stroke-width="1.33333" stroke-linejoin="round" stroke-miterlimit="10" fill="none" fill-rule="evenodd"/><path d="M819.2 103.914 819.2 381.787" stroke="#7F7F7F" stroke-width="1.33333" stroke-linejoin="round" stroke-miterlimit="10" fill="none" fill-rule="evenodd"/><path d="M663.653 381.12 819.867 381.12" stroke="#7F7F7F" stroke-width="1.33333" stroke-linejoin="round" stroke-miterlimit="10" fill="none" fill-rule="evenodd"/><text fill="#4EA72E" font-family="Cambria Math,Cambria Math_MSFontService,sans-serif" font-weight="400" font-size="24" transform="translate(777.173 93)">𝑚</text><text fill="#4EA72E" font-family="Cambria Math,Cambria Math_MSFontService,sans-serif" font-weight="400" font-size="18" transform="translate(797.34 98)">‐</text><text fill="#4EA72E" font-family="Cambria Math,Cambria Math_MSFontService,sans-serif" font-weight="400" font-size="18" transform="translate(803.173 98)">3</text><text fill="#0F9ED5" font-family="Cambria Math,Cambria Math_MSFontService,sans-serif" font-weight="400" font-size="24" transform="translate(725.547 93)">𝑚</text><text fill="#0F9ED5" font-family="Cambria Math,Cambria Math_MSFontService,sans-serif" font-weight="400" font-size="18" transform="translate(745.713 98)">‐</text><text fill="#0F9ED5" font-family="Cambria Math,Cambria Math_MSFontService,sans-serif" font-weight="400" font-size="18" transform="translate(751.547 98)">2</text><text fill="#E97132" font-family="Cambria Math,Cambria Math_MSFontService,sans-serif" font-weight="400" font-size="24" transform="translate(673.92 93)">𝑚</text><text fill="#E97132" font-family="Cambria Math,Cambria Math_MSFontService,sans-serif" font-weight="400" font-size="18" transform="translate(694.087 98)">‐</text><text fill="#E97132" font-family="Cambria Math,Cambria Math_MSFontService,sans-serif" font-weight="400" font-size="18" transform="translate(699.92 98)">1</text><g clip-path="url(#clip0)"><text fill="#E8E8E8" font-family="Cambria Math,Cambria Math_MSFontService,sans-serif" font-weight="400" font-size="15" transform="translate(766.854 156)">𝑚</text></g><text fill="#E8E8E8" font-family="Cambria Math,Cambria Math_MSFontService,sans-serif" font-weight="400" font-size="11" transform="translate(779.187 159)">‐</text><text fill="#E8E8E8" font-family="Cambria Math,Cambria Math_MSFontService,sans-serif" font-weight="400" font-size="11" transform="translate(782.687 159)">3</text><g><path d="M811.31 144.654C812.735 145.03 813.83 145.841 814.594 147.089 815.359 148.336 815.741 149.842 815.741 151.604 815.741 153.372 815.36 154.877 814.598 156.12 813.836 157.362 812.74 158.172 811.31 158.548L811.134 157.984C812.262 157.608 813.1 156.865 813.65 155.757 814.199 154.649 814.474 153.24 814.474 151.531 814.474 149.881 814.2 148.51 813.653 147.418 813.106 146.327 812.259 145.594 811.112 145.218ZM795.21 144.654 795.407 145.218C794.265 145.594 793.419 146.327 792.87 147.418 792.32 148.51 792.046 149.881 792.046 151.531 792.046 153.24 792.32 154.649 792.87 155.757 793.419 156.865 794.258 157.608 795.385 157.984L795.21 158.548C793.779 158.172 792.683 157.362 791.921 156.12 791.159 154.877 790.779 153.372 790.779 151.604 790.779 149.842 791.161 148.336 791.925 147.089 792.689 145.841 793.784 145.03 795.21 144.654Z" fill="#E8E8E8" fill-rule="evenodd"/></g><text fill="#E8E8E8" font-family="Cambria Math,Cambria Math_MSFontService,sans-serif" font-weight="400" font-size="15" transform="translate(795.547 156)">𝑋</text><text fill="#E8E8E8" font-family="Cambria Math,Cambria Math_MSFontService,sans-serif" font-weight="400" font-size="11" transform="translate(804.06 159)">1</text><g><text fill="#E8E8E8" font-family="Cambria Math,Cambria Math_MSFontService,sans-serif" font-weight="400" font-size="15" transform="translate(715.227 156)">𝑚</text></g><text fill="#E8E8E8" font-family="Cambria Math,Cambria Math_MSFontService,sans-serif" font-weight="400" font-size="11" transform="translate(727.56 159)">‐</text><text fill="#E8E8E8" font-family="Cambria Math,Cambria Math_MSFontService,sans-serif" font-weight="400" font-size="11" transform="translate(731.06 159)">2</text><g><path d="M759.683 144.654C761.109 145.03 762.204 145.841 762.968 147.089 763.732 148.336 764.114 149.842 764.114 151.604 764.114 153.372 763.733 154.877 762.971 156.12 762.21 157.362 761.113 158.172 759.683 158.548L759.507 157.984C760.635 157.608 761.474 156.865 762.023 155.757 762.572 154.649 762.847 153.24 762.847 151.531 762.847 149.881 762.573 148.51 762.027 147.418 761.48 146.327 760.633 145.594 759.485 145.218ZM743.583 144.654 743.781 145.218C742.638 145.594 741.792 146.327 741.243 147.418 740.694 148.51 740.419 149.881 740.419 151.531 740.419 153.24 740.694 154.649 741.243 155.757 741.792 156.865 742.631 157.608 743.759 157.984L743.583 158.548C742.152 158.172 741.056 157.362 740.294 156.12 739.533 154.877 739.152 153.372 739.152 151.604 739.152 149.842 739.534 148.336 740.298 147.089 741.062 145.841 742.157 145.03 743.583 144.654Z" fill="#E8E8E8" fill-rule="evenodd"/></g><text fill="#E8E8E8" font-family="Cambria Math,Cambria Math_MSFontService,sans-serif" font-weight="400" font-size="15" transform="translate(743.92 156)">𝑋</text><text fill="#E8E8E8" font-family="Cambria Math,Cambria Math_MSFontService,sans-serif" font-weight="400" font-size="11" transform="translate(752.433 159)">1</text><g clip-path="url(#clip1)"><text fill="#E8E8E8" font-family="Cambria Math,Cambria Math_MSFontService,sans-serif" font-weight="400" font-size="15" transform="translate(663.6 156)">𝑚</text></g><text fill="#E8E8E8" font-family="Cambria Math,Cambria Math_MSFontService,sans-serif" font-weight="400" font-size="11" transform="translate(675.933 159)">‐</text><text fill="#E8E8E8" font-family="Cambria Math,Cambria Math_MSFontService,sans-serif" font-weight="400" font-size="11" transform="translate(679.433 159)">1</text><g><path d="M708.056 144.654C709.482 145.03 710.577 145.841 711.341 147.089 712.105 148.336 712.487 149.842 712.487 151.604 712.487 153.372 712.106 154.877 711.345 156.12 710.583 157.362 709.487 158.172 708.056 158.548L707.88 157.984C709.008 157.608 709.847 156.865 710.396 155.757 710.945 154.649 711.22 153.24 711.22 151.531 711.22 149.881 710.947 148.51 710.4 147.418 709.853 146.327 709.006 145.594 707.858 145.218ZM691.956 144.654 692.154 145.218C691.011 145.594 690.165 146.327 689.616 147.418 689.067 148.51 688.792 149.881 688.792 151.531 688.792 153.24 689.067 154.649 689.616 155.757 690.165 156.865 691.004 157.608 692.132 157.984L691.956 158.548C690.526 158.172 689.429 157.362 688.668 156.12 687.906 154.877 687.525 153.372 687.525 151.604 687.525 149.842 687.907 148.336 688.671 147.089 689.435 145.841 690.53 145.03 691.956 144.654Z" fill="#E8E8E8" fill-rule="evenodd"/></g><text fill="#E8E8E8" font-family="Cambria Math,Cambria Math_MSFontService,sans-serif" font-weight="400" font-size="15" transform="translate(692.293 156)">𝑋</text><text fill="#E8E8E8" font-family="Cambria Math,Cambria Math_MSFontService,sans-serif" font-weight="400" font-size="11" transform="translate(700.807 159)">1</text><g clip-path="url(#clip2)"><text fill="#E8E8E8" font-family="Cambria Math,Cambria Math_MSFontService,sans-serif" font-weight="400" font-size="15" transform="translate(766.683 248)">𝑚</text></g><text fill="#E8E8E8" font-family="Cambria Math,Cambria Math_MSFontService,sans-serif" font-weight="400" font-size="11" transform="translate(779.017 251)">‐</text><text fill="#E8E8E8" font-family="Cambria Math,Cambria Math_MSFontService,sans-serif" font-weight="400" font-size="11" transform="translate(782.517 251)">3</text><g><path d="M811.48 236.833C812.905 237.209 814 238.021 814.764 239.269 815.529 240.516 815.911 242.021 815.911 243.784 815.911 245.552 815.53 247.057 814.768 248.299 814.006 249.542 812.91 250.351 811.48 250.727L811.304 250.163C812.432 249.788 813.27 249.045 813.82 247.937 814.369 246.829 814.644 245.42 814.644 243.711 814.644 242.06 814.37 240.69 813.823 239.598 813.276 238.507 812.429 237.773 811.282 237.397ZM795.04 236.833 795.237 237.397C794.095 237.773 793.249 238.507 792.7 239.598 792.15 240.69 791.876 242.06 791.876 243.711 791.876 245.42 792.15 246.829 792.7 247.937 793.249 249.045 794.088 249.788 795.215 250.163L795.04 250.727C793.609 250.351 792.513 249.542 791.751 248.299 790.989 247.057 790.609 245.552 790.609 243.784 790.609 242.021 790.991 240.516 791.755 239.269 792.519 238.021 793.614 237.209 795.04 236.833Z" fill="#E8E8E8" fill-rule="evenodd"/></g><text fill="#E8E8E8" font-family="Cambria Math,Cambria Math_MSFontService,sans-serif" font-weight="400" font-size="15" transform="translate(795.377 248)">𝑋</text><text fill="#E8E8E8" font-family="Cambria Math,Cambria Math_MSFontService,sans-serif" font-weight="400" font-size="11" transform="translate(804.23 251)">2</text><g><text fill="#E8E8E8" font-family="Cambria Math,Cambria Math_MSFontService,sans-serif" font-weight="400" font-size="15" transform="translate(715.057 248)">𝑚</text></g><text fill="#E8E8E8" font-family="Cambria Math,Cambria Math_MSFontService,sans-serif" font-weight="400" font-size="11" transform="translate(727.39 251)">‐</text><text fill="#E8E8E8" font-family="Cambria Math,Cambria Math_MSFontService,sans-serif" font-weight="400" font-size="11" transform="translate(730.89 251)">2</text><g><path d="M759.853 236.833C761.279 237.209 762.374 238.021 763.138 239.269 763.902 240.516 764.284 242.021 764.284 243.784 764.284 245.552 763.903 247.057 763.141 248.299 762.38 249.542 761.283 250.351 759.853 250.727L759.677 250.163C760.805 249.788 761.644 249.045 762.193 247.937 762.742 246.829 763.017 245.42 763.017 243.711 763.017 242.06 762.743 240.69 762.197 239.598 761.65 238.507 760.802 237.773 759.655 237.397ZM743.413 236.833 743.611 237.397C742.468 237.773 741.622 238.507 741.073 239.598 740.523 240.69 740.249 242.06 740.249 243.711 740.249 245.42 740.523 246.829 741.073 247.937 741.622 249.045 742.461 249.788 743.589 250.163L743.413 250.727C741.982 250.351 740.886 249.542 740.124 248.299 739.363 247.057 738.982 245.552 738.982 243.784 738.982 242.021 739.364 240.516 740.128 239.269 740.892 238.021 741.987 237.209 743.413 236.833Z" fill="#E8E8E8" fill-rule="evenodd"/></g><text fill="#E8E8E8" font-family="Cambria Math,Cambria Math_MSFontService,sans-serif" font-weight="400" font-size="15" transform="translate(743.75 248)">𝑋</text><text fill="#E8E8E8" font-family="Cambria Math,Cambria Math_MSFontService,sans-serif" font-weight="400" font-size="11" transform="translate(752.603 251)">2</text><g clip-path="url(#clip3)"><text fill="#E8E8E8" font-family="Cambria Math,Cambria Math_MSFontService,sans-serif" font-weight="400" font-size="15" transform="translate(663.43 248)">𝑚</text></g><text fill="#E8E8E8" font-family="Cambria Math,Cambria Math_MSFontService,sans-serif" font-weight="400" font-size="11" transform="translate(675.763 251)">‐</text><text fill="#E8E8E8" font-family="Cambria Math,Cambria Math_MSFontService,sans-serif" font-weight="400" font-size="11" transform="translate(679.263 251)">1</text><g><path d="M708.226 236.833C709.652 237.209 710.747 238.021 711.511 239.269 712.275 240.516 712.657 242.021 712.657 243.784 712.657 245.552 712.276 247.057 711.515 248.299 710.753 249.542 709.657 250.351 708.226 250.727L708.05 250.163C709.178 249.788 710.017 249.045 710.566 247.937 711.115 246.829 711.39 245.42 711.39 243.711 711.39 242.06 711.117 240.69 710.57 239.598 710.023 238.507 709.176 237.773 708.028 237.397ZM691.786 236.833 691.984 237.397C690.841 237.773 689.995 238.507 689.446 239.598 688.897 240.69 688.622 242.06 688.622 243.711 688.622 245.42 688.897 246.829 689.446 247.937 689.995 249.045 690.834 249.788 691.962 250.163L691.786 250.727C690.355 250.351 689.259 249.542 688.498 248.299 687.736 247.057 687.355 245.552 687.355 243.784 687.355 242.021 687.737 240.516 688.501 239.269 689.265 238.021 690.36 237.209 691.786 236.833Z" fill="#E8E8E8" fill-rule="evenodd"/></g><text fill="#E8E8E8" font-family="Cambria Math,Cambria Math_MSFontService,sans-serif" font-weight="400" font-size="15" transform="translate(692.123 248)">𝑋</text><text fill="#E8E8E8" font-family="Cambria Math,Cambria Math_MSFontService,sans-serif" font-weight="400" font-size="11" transform="translate(700.977 251)">2</text><g clip-path="url(#clip4)"><text fill="#E8E8E8" font-family="Cambria Math,Cambria Math_MSFontService,sans-serif" font-weight="400" font-size="15" transform="translate(766.683 340)">𝑚</text></g><text fill="#E8E8E8" font-family="Cambria Math,Cambria Math_MSFontService,sans-serif" font-weight="400" font-size="11" transform="translate(779.017 343)">‐</text><text fill="#E8E8E8" font-family="Cambria Math,Cambria Math_MSFontService,sans-serif" font-weight="400" font-size="11" transform="translate(782.517 343)">3</text><g><path d="M811.48 329.013C812.905 329.389 814 330.201 814.764 331.449 815.529 332.696 815.911 334.201 815.911 335.964 815.911 337.732 815.53 339.237 814.768 340.479 814.006 341.722 812.91 342.531 811.48 342.907L811.304 342.343C812.432 341.967 813.27 341.225 813.82 340.117 814.369 339.008 814.644 337.6 814.644 335.891 814.644 334.24 814.37 332.869 813.823 331.778 813.276 330.687 812.429 329.953 811.282 329.577ZM795.04 329.013 795.237 329.577C794.095 329.953 793.249 330.687 792.7 331.778 792.15 332.869 791.876 334.24 791.876 335.891 791.876 337.6 792.15 339.008 792.7 340.117 793.249 341.225 794.088 341.967 795.215 342.343L795.04 342.907C793.609 342.531 792.513 341.722 791.751 340.479 790.989 339.237 790.609 337.732 790.609 335.964 790.609 334.201 790.991 332.696 791.755 331.449 792.519 330.201 793.614 329.389 795.04 329.013Z" fill="#E8E8E8" fill-rule="evenodd"/></g><text fill="#E8E8E8" font-family="Cambria Math,Cambria Math_MSFontService,sans-serif" font-weight="400" font-size="15" transform="translate(795.377 340)">𝑋</text><text fill="#E8E8E8" font-family="Cambria Math,Cambria Math_MSFontService,sans-serif" font-weight="400" font-size="11" transform="translate(804.23 343)">3</text><g><text fill="#E8E8E8" font-family="Cambria Math,Cambria Math_MSFontService,sans-serif" font-weight="400" font-size="15" transform="translate(715.057 340)">𝑚</text></g><text fill="#E8E8E8" font-family="Cambria Math,Cambria Math_MSFontService,sans-serif" font-weight="400" font-size="11" transform="translate(727.39 343)">‐</text><text fill="#E8E8E8" font-family="Cambria Math,Cambria Math_MSFontService,sans-serif" font-weight="400" font-size="11" transform="translate(730.89 343)">2</text><g><path d="M759.853 329.013C761.279 329.389 762.374 330.201 763.138 331.449 763.902 332.696 764.284 334.201 764.284 335.964 764.284 337.732 763.903 339.237 763.141 340.479 762.38 341.722 761.283 342.531 759.853 342.907L759.677 342.343C760.805 341.967 761.644 341.225 762.193 340.117 762.742 339.008 763.017 337.6 763.017 335.891 763.017 334.24 762.743 332.869 762.197 331.778 761.65 330.687 760.802 329.953 759.655 329.577ZM743.413 329.013 743.611 329.577C742.468 329.953 741.622 330.687 741.073 331.778 740.523 332.869 740.249 334.24 740.249 335.891 740.249 337.6 740.523 339.008 741.073 340.117 741.622 341.225 742.461 341.967 743.589 342.343L743.413 342.907C741.982 342.531 740.886 341.722 740.124 340.479 739.363 339.237 738.982 337.732 738.982 335.964 738.982 334.201 739.364 332.696 740.128 331.449 740.892 330.201 741.987 329.389 743.413 329.013Z" fill="#E8E8E8" fill-rule="evenodd"/></g><text fill="#E8E8E8" font-family="Cambria Math,Cambria Math_MSFontService,sans-serif" font-weight="400" font-size="15" transform="translate(743.75 340)">𝑋</text><text fill="#E8E8E8" font-family="Cambria Math,Cambria Math_MSFontService,sans-serif" font-weight="400" font-size="11" transform="translate(752.603 343)">3</text><g clip-path="url(#clip5)"><text fill="#E8E8E8" font-family="Cambria Math,Cambria Math_MSFontService,sans-serif" font-weight="400" font-size="15" transform="translate(663.43 340)">𝑚</text></g><text fill="#E8E8E8" font-family="Cambria Math,Cambria Math_MSFontService,sans-serif" font-weight="400" font-size="11" transform="translate(675.763 343)">‐</text><text fill="#E8E8E8" font-family="Cambria Math,Cambria Math_MSFontService,sans-serif" font-weight="400" font-size="11" transform="translate(679.263 343)">1</text><g><path d="M708.226 329.013C709.652 329.389 710.747 330.201 711.511 331.449 712.275 332.696 712.657 334.201 712.657 335.964 712.657 337.732 712.276 339.237 711.515 340.479 710.753 341.722 709.657 342.531 708.226 342.907L708.05 342.343C709.178 341.967 710.017 341.225 710.566 340.117 711.115 339.008 711.39 337.6 711.39 335.891 711.39 334.24 711.117 332.869 710.57 331.778 710.023 330.687 709.176 329.953 708.028 329.577ZM691.786 329.013 691.984 329.577C690.841 329.953 689.995 330.687 689.446 331.778 688.897 332.869 688.622 334.24 688.622 335.891 688.622 337.6 688.897 339.008 689.446 340.117 689.995 341.225 690.834 341.967 691.962 342.343L691.786 342.907C690.355 342.531 689.259 341.722 688.498 340.479 687.736 339.237 687.355 337.732 687.355 335.964 687.355 334.201 687.737 332.696 688.501 331.449 689.265 330.201 690.36 329.389 691.786 329.013Z" fill="#E8E8E8" fill-rule="evenodd"/></g><text fill="#E8E8E8" font-family="Cambria Math,Cambria Math_MSFontService,sans-serif" font-weight="400" font-size="15" transform="translate(692.123 340)">𝑋</text><text fill="#E8E8E8" font-family="Cambria Math,Cambria Math_MSFontService,sans-serif" font-weight="400" font-size="11" transform="translate(700.977 343)">3</text><path d="M897.44 104.58 949.066 104.58 949.066 196.76 897.44 196.76Z" fill="#E97132" fill-rule="evenodd"/><path d="M949.066 104.58 1000.69 104.58 1000.69 196.76 949.066 196.76Z" fill="#E97132" fill-rule="evenodd"/><path d="M897.44 196.76 949.066 196.76 949.066 288.94 897.44 288.94Z" fill="#0F9ED5" fill-rule="evenodd"/><path d="M949.066 196.76 1000.69 196.76 1000.69 288.94 949.066 288.94Z" fill="#0F9ED5" fill-rule="evenodd"/><path d="M897.44 288.94 949.066 288.94 949.066 381.12 897.44 381.12Z" fill="#4EA72E" fill-rule="evenodd"/><path d="M949.066 288.94 1000.69 288.94 1000.69 381.12 949.066 381.12Z" fill="#4EA72E" fill-rule="evenodd"/><path d="M949.066 103.914 949.066 381.787" stroke="#7F7F7F" stroke-width="1.33333" stroke-linejoin="round" stroke-miterlimit="10" fill="none" fill-rule="evenodd"/><path d="M896.773 104.58 1001.36 104.58" stroke="#7F7F7F" stroke-width="1.33333" stroke-linejoin="round" stroke-miterlimit="10" fill="none" fill-rule="evenodd"/><path d="M896.773 196.76 1001.36 196.76" stroke="#7F7F7F" stroke-width="1.33333" stroke-linejoin="round" stroke-miterlimit="10" fill="none" fill-rule="evenodd"/><path d="M896.773 288.94 1001.36 288.94" stroke="#7F7F7F" stroke-width="1.33333" stroke-linejoin="round" stroke-miterlimit="10" fill="none" fill-rule="evenodd"/><path d="M897.44 103.914 897.44 381.787" stroke="#7F7F7F" stroke-width="1.33333" stroke-linejoin="round" stroke-miterlimit="10" fill="none" fill-rule="evenodd"/><path d="M1000.69 103.914 1000.69 381.787" stroke="#7F7F7F" stroke-width="1.33333" stroke-linejoin="round" stroke-miterlimit="10" fill="none" fill-rule="evenodd"/><path d="M896.773 381.12 1001.36 381.12" stroke="#7F7F7F" stroke-width="1.33333" stroke-linejoin="round" stroke-miterlimit="10" fill="none" fill-rule="evenodd"/><text font-family="Cambria Math,Cambria Math_MSFontService,sans-serif" font-weight="400" font-size="24" transform="translate(964.54 93)">𝑚</text><text font-family="Cambria Math,Cambria Math_MSFontService,sans-serif" font-weight="400" font-size="24" transform="translate(915.866 93)">𝜋</text><text fill="#E8E8E8" font-family="Cambria Math,Cambria Math_MSFontService,sans-serif" font-weight="400" font-size="24" transform="translate(958.666 158)">𝑚</text><text fill="#E8E8E8" font-family="Cambria Math,Cambria Math_MSFontService,sans-serif" font-weight="400" font-size="18" transform="translate(978.833 163)">‐</text><text fill="#E8E8E8" font-family="Cambria Math,Cambria Math_MSFontService,sans-serif" font-weight="400" font-size="18" transform="translate(984.666 163)">1</text><text fill="#E8E8E8" font-family="Cambria Math,Cambria Math_MSFontService,sans-serif" font-weight="400" font-size="24" transform="translate(907.626 158)">𝜋</text><text fill="#E8E8E8" font-family="Cambria Math,Cambria Math_MSFontService,sans-serif" font-weight="400" font-size="18" transform="translate(921.793 163)">‐</text><text fill="#E8E8E8" font-family="Cambria Math,Cambria Math_MSFontService,sans-serif" font-weight="400" font-size="18" transform="translate(927.626 163)">1</text><text fill="#E8E8E8" font-family="Cambria Math,Cambria Math_MSFontService,sans-serif" font-weight="400" font-size="24" transform="translate(958.666 250)">𝑚</text><text fill="#E8E8E8" font-family="Cambria Math,Cambria Math_MSFontService,sans-serif" font-weight="400" font-size="18" transform="translate(978.833 255)">‐</text><text fill="#E8E8E8" font-family="Cambria Math,Cambria Math_MSFontService,sans-serif" font-weight="400" font-size="18" transform="translate(984.666 255)">2</text><text fill="#E8E8E8" font-family="Cambria Math,Cambria Math_MSFontService,sans-serif" font-weight="400" font-size="24" transform="translate(907.626 250)">𝜋</text><text fill="#E8E8E8" font-family="Cambria Math,Cambria Math_MSFontService,sans-serif" font-weight="400" font-size="18" transform="translate(921.793 255)">‐</text><text fill="#E8E8E8" font-family="Cambria Math,Cambria Math_MSFontService,sans-serif" font-weight="400" font-size="18" transform="translate(927.626 255)">2</text><text fill="#E8E8E8" font-family="Cambria Math,Cambria Math_MSFontService,sans-serif" font-weight="400" font-size="24" transform="translate(958.666 343)">𝑚</text><text fill="#E8E8E8" font-family="Cambria Math,Cambria Math_MSFontService,sans-serif" font-weight="400" font-size="18" transform="translate(978.833 348)">‐</text><text fill="#E8E8E8" font-family="Cambria Math,Cambria Math_MSFontService,sans-serif" font-weight="400" font-size="18" transform="translate(984.666 348)">3</text><text fill="#E8E8E8" font-family="Cambria Math,Cambria Math_MSFontService,sans-serif" font-weight="400" font-size="24" transform="translate(907.626 343)">𝜋</text><text fill="#E8E8E8" font-family="Cambria Math,Cambria Math_MSFontService,sans-serif" font-weight="400" font-size="18" transform="translate(921.793 348)">‐</text><text fill="#E8E8E8" font-family="Cambria Math,Cambria Math_MSFontService,sans-serif" font-weight="400" font-size="18" transform="translate(927.626 348)">3</text><text font-family="Aptos,Aptos_MSFontService,sans-serif" font-style="italic" font-weight="400" font-size="16" transform="translate(604.16 417)">selected</text><path d="M593.804 370.405 609.035 390.968 607.428 392.158 592.196 371.595ZM610.652 388.111 612.2 396.92 604.224 392.872Z" fill="#4EA72E"/><text font-family="Aptos,Aptos_MSFontService,sans-serif" font-style="italic" font-weight="400" font-size="16" transform="translate(420.28 417)">In</text><text font-family="Aptos,Aptos_MSFontService,sans-serif" font-style="italic" font-weight="400" font-size="16" transform="translate(433.28 417)">-</text><text font-family="Aptos,Aptos_MSFontService,sans-serif" font-style="italic" font-weight="400" font-size="16" transform="translate(438.78 417)">sample</text><text font-family="Aptos,Aptos_MSFontService,sans-serif" font-style="italic" font-weight="400" font-size="16" transform="translate(420.28 436)">prediction</text><path d="M0.668909-0.743344 21.7138 18.1942 20.376 19.6809-0.668909 0.743344ZM22.7294 15.0723 26.0005 23.397 17.3781 21.0191Z" fill="#595959" transform="matrix(-1 0 0 1 482.001 374)"/><text font-family="IBM Plex Sans Medium,IBM Plex Sans Medium_MSFontService,sans-serif" font-weight="500" font-size="32" transform="translate(415.95 47)">Cross</text><text font-family="IBM Plex Sans Medium,IBM Plex Sans Medium_MSFontService,sans-serif" font-weight="500" font-size="32" transform="translate(498.283 47)">-</text><text font-family="IBM Plex Sans Medium,IBM Plex Sans Medium_MSFontService,sans-serif" font-weight="500" font-size="32" transform="translate(511.117 47)">validation</text><rect x="247" y="99" width="39" height="94" stroke="#042433" stroke-width="2" stroke-miterlimit="8" fill="#7F7F7F"/><text fill="#FFFFFF" font-family="Cambria Math,Cambria Math_MSFontService,sans-serif" font-weight="400" font-size="24" transform="translate(251.097 154)">𝐴</text><text fill="#FFFFFF" font-family="Cambria Math,Cambria Math_MSFontService,sans-serif" font-weight="400" font-size="18" transform="translate(265.71 158)">1</text><rect x="247" y="193" width="39" height="94" stroke="#042433" stroke-width="2" stroke-miterlimit="8" fill="#7F7F7F"/><text fill="#FFFFFF" font-family="Cambria Math,Cambria Math_MSFontService,sans-serif" font-weight="400" font-size="24" transform="translate(250.82 248)">𝐴</text><text fill="#FFFFFF" font-family="Cambria Math,Cambria Math_MSFontService,sans-serif" font-weight="400" font-size="18" transform="translate(265.987 253)">2</text><rect x="247" y="287" width="39" height="94" stroke="#042433" stroke-width="2" stroke-miterlimit="8" fill="#7F7F7F"/><text fill="#FFFFFF" font-family="Cambria Math,Cambria Math_MSFontService,sans-serif" font-weight="400" font-size="24" transform="translate(250.82 342)">𝐴</text><text fill="#FFFFFF" font-family="Cambria Math,Cambria Math_MSFontService,sans-serif" font-weight="400" font-size="18" transform="translate(265.987 347)">3</text><rect x="286" y="99" width="39" height="94" stroke="#042433" stroke-width="2" stroke-miterlimit="8" fill="#7F7F7F"/><text fill="#FFFFFF" font-family="Cambria Math,Cambria Math_MSFontService,sans-serif" font-weight="400" font-size="24" transform="translate(292.439 154)">𝑌</text><text fill="#FFFFFF" font-family="Cambria Math,Cambria Math_MSFontService,sans-serif" font-weight="400" font-size="18" transform="translate(302.446 158)">1</text><rect x="286" y="193" width="39" height="94" stroke="#042433" stroke-width="2" stroke-miterlimit="8" fill="#7F7F7F"/><text fill="#FFFFFF" font-family="Cambria Math,Cambria Math_MSFontService,sans-serif" font-weight="400" font-size="24" transform="translate(292.163 248)">𝑌</text><text fill="#FFFFFF" font-family="Cambria Math,Cambria Math_MSFontService,sans-serif" font-weight="400" font-size="18" transform="translate(302.723 253)">2</text><rect x="286" y="287" width="39" height="94" stroke="#042433" stroke-width="2" stroke-miterlimit="8" fill="#7F7F7F"/><text fill="#FFFFFF" font-family="Cambria Math,Cambria Math_MSFontService,sans-serif" font-weight="400" font-size="24" transform="translate(292.163 342)">𝑌</text><text fill="#FFFFFF" font-family="Cambria Math,Cambria Math_MSFontService,sans-serif" font-weight="400" font-size="18" transform="translate(302.723 347)">3</text></g></svg>