<svg width="1280" height="720" xmlns="http://www.w3.org/2000/svg" xmlns:xlink="http://www.w3.org/1999/xlink" overflow="hidden"><g><rect x="0" y="0" width="1280" height="720" fill="#FFFFFF"/><rect x="71" y="99" width="176" height="141" stroke="#042433" stroke-width="2" stroke-miterlimit="8" fill="#7F7F7F"/><text fill="#FFFFFF" font-family="Cambria Math,Cambria Math_MSFontService,sans-serif" font-weight="400" font-size="24" transform="translate(143.937 177)">ğ‘‹</text><text fill="#FFFFFF" font-family="Cambria Math,Cambria Math_MSFontService,sans-serif" font-weight="400" font-size="18" transform="translate(157.83 182)">1</text><rect x="71" y="240" width="176" height="141" stroke="#042433" stroke-width="2" stroke-miterlimit="8" fill="#7F7F7F"/><text fill="#FFFFFF" font-family="Cambria Math,Cambria Math_MSFontService,sans-serif" font-weight="400" font-size="24" transform="translate(143.66 318)">ğ‘‹</text><text fill="#FFFFFF" font-family="Cambria Math,Cambria Math_MSFontService,sans-serif" font-weight="400" font-size="18" transform="translate(158.107 323)">2</text><text fill="#E97132" font-family="Cambria Math,Cambria Math_MSFontService,sans-serif" font-weight="400" font-size="24" transform="translate(372.033 163)">ğœ‹</text><text fill="#E97132" font-family="Cambria Math,Cambria Math_MSFontService,sans-serif" font-weight="400" font-size="18" transform="translate(385.647 168)">1</text><text fill="#E97132" font-family="Cambria Math,Cambria Math_MSFontService,sans-serif" font-weight="400" font-size="24" transform="translate(369.033 192)">ğ‘š</text><text fill="#E97132" font-family="Cambria Math,Cambria Math_MSFontService,sans-serif" font-weight="400" font-size="18" transform="translate(388.647 197)">1</text><text fill="#0F9ED5" font-family="Cambria Math,Cambria Math_MSFontService,sans-serif" font-weight="400" font-size="24" transform="translate(371.76 304)">ğœ‹</text><text fill="#0F9ED5" font-family="Cambria Math,Cambria Math_MSFontService,sans-serif" font-weight="400" font-size="18" transform="translate(385.927 309)">2</text><text fill="#0F9ED5" font-family="Cambria Math,Cambria Math_MSFontService,sans-serif" font-weight="400" font-size="24" transform="translate(368.76 333)">ğ‘š</text><text fill="#0F9ED5" font-family="Cambria Math,Cambria Math_MSFontService,sans-serif" font-weight="400" font-size="18" transform="translate(388.927 338)">2</text><path d="M460.8 104.581 512.427 104.581 512.427 242.85 460.8 242.85Z" fill="#595959" fill-rule="evenodd"/><path d="M512.427 104.581 564.054 104.581 564.054 242.85 512.427 242.85Z" fill="#0F9ED5" fill-rule="evenodd"/><path d="M460.8 242.85 512.427 242.85 512.427 381.12 460.8 381.12Z" fill="#E97132" fill-rule="evenodd"/><path d="M512.427 242.85 564.054 242.85 564.054 381.12 512.427 381.12Z" fill="#595959" fill-rule="evenodd"/><path d="M512.427 103.914 512.427 381.787" stroke="#7F7F7F" stroke-width="1.33333" stroke-linejoin="round" stroke-miterlimit="10" fill="none" fill-rule="evenodd"/><path d="M460.133 104.581 564.72 104.581" stroke="#7F7F7F" stroke-width="1.33333" stroke-linejoin="round" stroke-miterlimit="10" fill="none" fill-rule="evenodd"/><path d="M460.133 242.85 564.72 242.85" stroke="#7F7F7F" stroke-width="1.33333" stroke-linejoin="round" stroke-miterlimit="10" fill="none" fill-rule="evenodd"/><path d="M460.8 103.914 460.8 381.787" stroke="#7F7F7F" stroke-width="1.33333" stroke-linejoin="round" stroke-miterlimit="10" fill="none" fill-rule="evenodd"/><path d="M564.054 103.914 564.054 381.787" stroke="#7F7F7F" stroke-width="1.33333" stroke-linejoin="round" stroke-miterlimit="10" fill="none" fill-rule="evenodd"/><path d="M460.133 381.12 564.72 381.12" stroke="#7F7F7F" stroke-width="1.33333" stroke-linejoin="round" stroke-miterlimit="10" fill="none" fill-rule="evenodd"/><text fill="#0F9ED5" font-family="Cambria Math,Cambria Math_MSFontService,sans-serif" font-weight="400" font-size="24" transform="translate(525.527 93)">ğœ‹</text><text fill="#0F9ED5" font-family="Cambria Math,Cambria Math_MSFontService,sans-serif" font-weight="400" font-size="18" transform="translate(539.693 98)">2</text><text fill="#E97132" font-family="Cambria Math,Cambria Math_MSFontService,sans-serif" font-weight="400" font-size="24" transform="translate(474.18 93)">ğœ‹</text><text fill="#E97132" font-family="Cambria Math,Cambria Math_MSFontService,sans-serif" font-weight="400" font-size="18" transform="translate(487.793 98)">1</text><g><text fill="#E8E8E8" font-family="Cambria Math,Cambria Math_MSFontService,sans-serif" font-weight="400" font-size="15" transform="translate(515.29 179)">ğœ‹</text></g><text fill="#E8E8E8" font-family="Cambria Math,Cambria Math_MSFontService,sans-serif" font-weight="400" font-size="11" transform="translate(523.957 182)">2</text><g><path d="M552.58 167.699C554.005 168.075 555.1 168.887 555.865 170.134 556.629 171.382 557.011 172.887 557.011 174.649 557.011 176.417 556.63 177.922 555.868 179.165 555.106 180.408 554.01 181.217 552.58 181.593L552.404 181.029C553.532 180.653 554.37 179.911 554.92 178.802 555.469 177.694 555.744 176.285 555.744 174.576 555.744 172.926 555.47 171.555 554.923 170.464 554.376 169.372 553.529 168.639 552.382 168.263ZM536.48 167.699 536.677 168.263C535.535 168.639 534.689 169.372 534.14 170.464 533.59 171.555 533.316 172.926 533.316 174.576 533.316 176.285 533.59 177.694 534.14 178.802 534.689 179.911 535.528 180.653 536.655 181.029L536.48 181.593C535.049 181.217 533.953 180.408 533.191 179.165 532.429 177.922 532.049 176.417 532.049 174.649 532.049 172.887 532.431 171.382 533.195 170.134 533.959 168.887 535.054 168.075 536.48 167.699Z" fill="#E8E8E8" fill-rule="evenodd"/></g><text fill="#E8E8E8" font-family="Cambria Math,Cambria Math_MSFontService,sans-serif" font-weight="400" font-size="15" transform="translate(536.817 179)">ğ‘‹</text><text fill="#E8E8E8" font-family="Cambria Math,Cambria Math_MSFontService,sans-serif" font-weight="400" font-size="11" transform="translate(545.33 182)">1</text><g><text fill="#E8E8E8" font-family="Cambria Math,Cambria Math_MSFontService,sans-serif" font-weight="400" font-size="15" transform="translate(463.833 179)">ğœ‹</text></g><text fill="#E8E8E8" font-family="Cambria Math,Cambria Math_MSFontService,sans-serif" font-weight="400" font-size="11" transform="translate(472.16 182)">1</text><g><path d="M500.783 167.699C502.209 168.075 503.304 168.887 504.068 170.134 504.832 171.382 505.214 172.887 505.214 174.649 505.214 176.417 504.833 177.922 504.071 179.165 503.31 180.408 502.213 181.217 500.783 181.593L500.607 181.029C501.735 180.653 502.574 179.911 503.123 178.802 503.672 177.694 503.947 176.285 503.947 174.576 503.947 172.926 503.673 171.555 503.127 170.464 502.58 169.372 501.732 168.639 500.585 168.263ZM484.683 167.699 484.881 168.263C483.738 168.639 482.892 169.372 482.343 170.464 481.793 171.555 481.519 172.926 481.519 174.576 481.519 176.285 481.793 177.694 482.343 178.802 482.892 179.911 483.731 180.653 484.859 181.029L484.683 181.593C483.252 181.217 482.156 180.408 481.394 179.165 480.633 177.922 480.252 176.417 480.252 174.649 480.252 172.887 480.634 171.382 481.398 170.134 482.162 168.887 483.257 168.075 484.683 167.699Z" fill="#E8E8E8" fill-rule="evenodd"/></g><text fill="#E8E8E8" font-family="Cambria Math,Cambria Math_MSFontService,sans-serif" font-weight="400" font-size="15" transform="translate(485.02 179)">ğ‘‹</text><text fill="#E8E8E8" font-family="Cambria Math,Cambria Math_MSFontService,sans-serif" font-weight="400" font-size="11" transform="translate(493.533 182)">1</text><g><text fill="#E8E8E8" font-family="Cambria Math,Cambria Math_MSFontService,sans-serif" font-weight="400" font-size="15" transform="translate(515.12 317)">ğœ‹</text></g><text fill="#E8E8E8" font-family="Cambria Math,Cambria Math_MSFontService,sans-serif" font-weight="400" font-size="11" transform="translate(523.787 320)">2</text><g><path d="M552.75 305.969C554.175 306.345 555.27 307.156 556.034 308.404 556.799 309.651 557.181 311.157 557.181 312.919 557.181 314.687 556.8 316.192 556.038 317.435 555.276 318.677 554.18 319.487 552.75 319.863L552.574 319.299C553.702 318.923 554.54 318.18 555.09 317.072 555.639 315.964 555.914 314.555 555.914 312.846 555.914 311.196 555.64 309.825 555.093 308.733 554.546 307.642 553.699 306.909 552.552 306.533ZM536.31 305.969 536.507 306.533C535.365 306.909 534.519 307.642 533.97 308.733 533.42 309.825 533.146 311.196 533.146 312.846 533.146 314.555 533.42 315.964 533.97 317.072 534.519 318.18 535.358 318.923 536.485 319.299L536.31 319.863C534.879 319.487 533.783 318.677 533.021 317.435 532.259 316.192 531.879 314.687 531.879 312.919 531.879 311.157 532.261 309.651 533.025 308.404 533.789 307.156 534.884 306.345 536.31 305.969Z" fill="#E8E8E8" fill-rule="evenodd"/></g><text fill="#E8E8E8" font-family="Cambria Math,Cambria Math_MSFontService,sans-serif" font-weight="400" font-size="15" transform="translate(536.647 317)">ğ‘‹</text><text fill="#E8E8E8" font-family="Cambria Math,Cambria Math_MSFontService,sans-serif" font-weight="400" font-size="11" transform="translate(545.5 320)">2</text><g><text fill="#E8E8E8" font-family="Cambria Math,Cambria Math_MSFontService,sans-serif" font-weight="400" font-size="15" transform="translate(463.663 317)">ğœ‹</text></g><text fill="#E8E8E8" font-family="Cambria Math,Cambria Math_MSFontService,sans-serif" font-weight="400" font-size="11" transform="translate(471.99 320)">1</text><g><path d="M500.953 305.969C502.379 306.345 503.474 307.156 504.238 308.404 505.002 309.651 505.384 311.157 505.384 312.919 505.384 314.687 505.003 316.192 504.241 317.435 503.48 318.677 502.383 319.487 500.953 319.863L500.777 319.299C501.905 318.923 502.744 318.18 503.293 317.072 503.842 315.964 504.117 314.555 504.117 312.846 504.117 311.196 503.843 309.825 503.297 308.733 502.75 307.642 501.902 306.909 500.755 306.533ZM484.513 305.969 484.711 306.533C483.568 306.909 482.722 307.642 482.173 308.733 481.623 309.825 481.349 311.196 481.349 312.846 481.349 314.555 481.623 315.964 482.173 317.072 482.722 318.18 483.561 318.923 484.689 319.299L484.513 319.863C483.082 319.487 481.986 318.677 481.224 317.435 480.463 316.192 480.082 314.687 480.082 312.919 480.082 311.157 480.464 309.651 481.228 308.404 481.992 307.156 483.087 306.345 484.513 305.969Z" fill="#E8E8E8" fill-rule="evenodd"/></g><text fill="#E8E8E8" font-family="Cambria Math,Cambria Math_MSFontService,sans-serif" font-weight="400" font-size="15" transform="translate(484.85 317)">ğ‘‹</text><text fill="#E8E8E8" font-family="Cambria Math,Cambria Math_MSFontService,sans-serif" font-weight="400" font-size="11" transform="translate(493.703 320)">2</text><path d="M631.68 104.58 683.307 104.58 683.307 242.85 631.68 242.85Z" fill="#595959" fill-rule="evenodd"/><path d="M683.307 104.58 734.933 104.58 734.933 242.85 683.307 242.85Z" fill="#0F9ED5" fill-rule="evenodd"/><path d="M631.68 242.85 683.307 242.85 683.307 381.12 631.68 381.12Z" fill="#E97132" fill-rule="evenodd"/><path d="M683.307 242.85 734.933 242.85 734.933 381.12 683.307 381.12Z" fill="#595959" fill-rule="evenodd"/><path d="M683.307 103.914 683.307 381.787" stroke="#7F7F7F" stroke-width="1.33333" stroke-linejoin="round" stroke-miterlimit="10" fill="none" fill-rule="evenodd"/><path d="M631.013 104.58 735.6 104.58" stroke="#7F7F7F" stroke-width="1.33333" stroke-linejoin="round" stroke-miterlimit="10" fill="none" fill-rule="evenodd"/><path d="M631.013 242.85 735.6 242.85" stroke="#7F7F7F" stroke-width="1.33333" stroke-linejoin="round" stroke-miterlimit="10" fill="none" fill-rule="evenodd"/><path d="M631.68 103.914 631.68 381.787" stroke="#7F7F7F" stroke-width="1.33333" stroke-linejoin="round" stroke-miterlimit="10" fill="none" fill-rule="evenodd"/><path d="M734.933 103.914 734.933 381.787" stroke="#7F7F7F" stroke-width="1.33333" stroke-linejoin="round" stroke-miterlimit="10" fill="none" fill-rule="evenodd"/><path d="M631.013 381.12 735.6 381.12" stroke="#7F7F7F" stroke-width="1.33333" stroke-linejoin="round" stroke-miterlimit="10" fill="none" fill-rule="evenodd"/><text fill="#0F9ED5" font-family="Cambria Math,Cambria Math_MSFontService,sans-serif" font-weight="400" font-size="24" transform="translate(693.407 93)">ğ‘š</text><text fill="#0F9ED5" font-family="Cambria Math,Cambria Math_MSFontService,sans-serif" font-weight="400" font-size="18" transform="translate(713.573 98)">2</text><text fill="#E97132" font-family="Cambria Math,Cambria Math_MSFontService,sans-serif" font-weight="400" font-size="24" transform="translate(642.06 93)">ğ‘š</text><text fill="#E97132" font-family="Cambria Math,Cambria Math_MSFontService,sans-serif" font-weight="400" font-size="18" transform="translate(661.673 98)">1</text><g><text fill="#E8E8E8" font-family="Cambria Math,Cambria Math_MSFontService,sans-serif" font-weight="400" font-size="15" transform="translate(684.337 179)">ğ‘š</text></g><text fill="#E8E8E8" font-family="Cambria Math,Cambria Math_MSFontService,sans-serif" font-weight="400" font-size="11" transform="translate(696.67 182)">2</text><g><path d="M725.293 167.699C726.719 168.075 727.813 168.886 728.578 170.134 729.342 171.381 729.724 172.887 729.724 174.649 729.724 176.417 729.343 177.922 728.581 179.165 727.82 180.407 726.723 181.217 725.293 181.593L725.117 181.029C726.245 180.653 727.083 179.91 727.633 178.802 728.182 177.694 728.457 176.285 728.457 174.576 728.457 172.926 728.183 171.555 727.636 170.463 727.09 169.372 726.242 168.638 725.095 168.263ZM709.193 167.699 709.391 168.263C708.248 168.638 707.402 169.372 706.853 170.463 706.303 171.555 706.029 172.926 706.029 174.576 706.029 176.285 706.303 177.694 706.853 178.802 707.402 179.91 708.241 180.653 709.369 181.029L709.193 181.593C707.762 181.217 706.666 180.407 705.904 179.165 705.143 177.922 704.762 176.417 704.762 174.649 704.762 172.887 705.144 171.381 705.908 170.134 706.672 168.886 707.767 168.075 709.193 167.699Z" fill="#E8E8E8" fill-rule="evenodd"/></g><text fill="#E8E8E8" font-family="Cambria Math,Cambria Math_MSFontService,sans-serif" font-weight="400" font-size="15" transform="translate(709.53 179)">ğ‘‹</text><text fill="#E8E8E8" font-family="Cambria Math,Cambria Math_MSFontService,sans-serif" font-weight="400" font-size="11" transform="translate(718.043 182)">1</text><g><text fill="#E8E8E8" font-family="Cambria Math,Cambria Math_MSFontService,sans-serif" font-weight="400" font-size="15" transform="translate(632.88 179)">ğ‘š</text></g><text fill="#E8E8E8" font-family="Cambria Math,Cambria Math_MSFontService,sans-serif" font-weight="400" font-size="11" transform="translate(644.873 182)">1</text><g><path d="M673.496 167.699C674.922 168.075 676.017 168.886 676.781 170.134 677.545 171.381 677.927 172.887 677.927 174.649 677.927 176.417 677.546 177.922 676.785 179.165 676.023 180.407 674.927 181.217 673.496 181.593L673.32 181.029C674.448 180.653 675.287 179.91 675.836 178.802 676.385 177.694 676.66 176.285 676.66 174.576 676.66 172.926 676.387 171.555 675.84 170.463 675.293 169.372 674.446 168.638 673.298 168.263ZM657.396 167.699 657.594 168.263C656.451 168.638 655.605 169.372 655.056 170.463 654.507 171.555 654.232 172.926 654.232 174.576 654.232 176.285 654.507 177.694 655.056 178.802 655.605 179.91 656.444 180.653 657.572 181.029L657.396 181.593C655.965 181.217 654.869 180.407 654.108 179.165 653.346 177.922 652.965 176.417 652.965 174.649 652.965 172.887 653.347 171.381 654.111 170.134 654.875 168.886 655.97 168.075 657.396 167.699Z" fill="#E8E8E8" fill-rule="evenodd"/></g><text fill="#E8E8E8" font-family="Cambria Math,Cambria Math_MSFontService,sans-serif" font-weight="400" font-size="15" transform="translate(657.733 179)">ğ‘‹</text><text fill="#E8E8E8" font-family="Cambria Math,Cambria Math_MSFontService,sans-serif" font-weight="400" font-size="11" transform="translate(666.247 182)">1</text><g><text fill="#E8E8E8" font-family="Cambria Math,Cambria Math_MSFontService,sans-serif" font-weight="400" font-size="15" transform="translate(684.167 317)">ğ‘š</text></g><text fill="#E8E8E8" font-family="Cambria Math,Cambria Math_MSFontService,sans-serif" font-weight="400" font-size="11" transform="translate(696.5 320)">2</text><g><path d="M725.463 305.968C726.889 306.344 727.984 307.156 728.748 308.404 729.512 309.651 729.894 311.156 729.894 312.919 729.894 314.687 729.513 316.192 728.751 317.434 727.99 318.677 726.893 319.486 725.463 319.862L725.287 319.298C726.415 318.922 727.254 318.18 727.803 317.072 728.352 315.964 728.627 314.555 728.627 312.846 728.627 311.195 728.353 309.825 727.807 308.733 727.26 307.642 726.413 306.908 725.265 306.532ZM709.023 305.968 709.221 306.532C708.078 306.908 707.232 307.642 706.683 308.733 706.134 309.825 705.859 311.195 705.859 312.846 705.859 314.555 706.134 315.964 706.683 317.072 707.232 318.18 708.071 318.922 709.199 319.298L709.023 319.862C707.592 319.486 706.496 318.677 705.734 317.434 704.973 316.192 704.592 314.687 704.592 312.919 704.592 311.156 704.974 309.651 705.738 308.404 706.502 307.156 707.597 306.344 709.023 305.968Z" fill="#E8E8E8" fill-rule="evenodd"/></g><text fill="#E8E8E8" font-family="Cambria Math,Cambria Math_MSFontService,sans-serif" font-weight="400" font-size="15" transform="translate(709.36 317)">ğ‘‹</text><text fill="#E8E8E8" font-family="Cambria Math,Cambria Math_MSFontService,sans-serif" font-weight="400" font-size="11" transform="translate(718.213 320)">2</text><g><text fill="#E8E8E8" font-family="Cambria Math,Cambria Math_MSFontService,sans-serif" font-weight="400" font-size="15" transform="translate(632.71 317)">ğ‘š</text></g><text fill="#E8E8E8" font-family="Cambria Math,Cambria Math_MSFontService,sans-serif" font-weight="400" font-size="11" transform="translate(644.703 320)">1</text><g><path d="M673.666 305.968C675.092 306.344 676.187 307.156 676.951 308.404 677.715 309.651 678.097 311.156 678.097 312.919 678.097 314.687 677.716 316.192 676.955 317.434 676.193 318.677 675.097 319.486 673.666 319.862L673.49 319.298C674.618 318.922 675.457 318.18 676.006 317.072 676.555 315.964 676.83 314.555 676.83 312.846 676.83 311.195 676.557 309.825 676.01 308.733 675.463 307.642 674.616 306.908 673.468 306.532ZM657.226 305.968 657.424 306.532C656.281 306.908 655.435 307.642 654.886 308.733 654.337 309.825 654.062 311.195 654.062 312.846 654.062 314.555 654.337 315.964 654.886 317.072 655.435 318.18 656.274 318.922 657.402 319.298L657.226 319.862C655.795 319.486 654.699 318.677 653.938 317.434 653.176 316.192 652.795 314.687 652.795 312.919 652.795 311.156 653.177 309.651 653.941 308.404 654.705 307.156 655.8 306.344 657.226 305.968Z" fill="#E8E8E8" fill-rule="evenodd"/></g><text fill="#E8E8E8" font-family="Cambria Math,Cambria Math_MSFontService,sans-serif" font-weight="400" font-size="15" transform="translate(657.563 317)">ğ‘‹</text><text fill="#E8E8E8" font-family="Cambria Math,Cambria Math_MSFontService,sans-serif" font-weight="400" font-size="11" transform="translate(666.417 320)">2</text><path d="M802.56 104.58 854.187 104.58 854.187 242.85 802.56 242.85Z" fill="#0F9ED5" fill-rule="evenodd"/><path d="M854.187 104.58 905.813 104.58 905.813 242.85 854.187 242.85Z" fill="#0F9ED5" fill-rule="evenodd"/><path d="M802.56 242.85 854.187 242.85 854.187 381.12 802.56 381.12Z" fill="#E97132" fill-rule="evenodd"/><path d="M854.187 242.85 905.813 242.85 905.813 381.12 854.187 381.12Z" fill="#E97132" fill-rule="evenodd"/><path d="M854.187 103.914 854.187 381.787" stroke="#7F7F7F" stroke-width="1.33333" stroke-linejoin="round" stroke-miterlimit="10" fill="none" fill-rule="evenodd"/><path d="M801.893 104.58 906.48 104.58" stroke="#7F7F7F" stroke-width="1.33333" stroke-linejoin="round" stroke-miterlimit="10" fill="none" fill-rule="evenodd"/><path d="M801.893 242.85 906.48 242.85" stroke="#7F7F7F" stroke-width="1.33333" stroke-linejoin="round" stroke-miterlimit="10" fill="none" fill-rule="evenodd"/><path d="M802.56 103.914 802.56 381.787" stroke="#7F7F7F" stroke-width="1.33333" stroke-linejoin="round" stroke-miterlimit="10" fill="none" fill-rule="evenodd"/><path d="M905.813 103.914 905.813 381.787" stroke="#7F7F7F" stroke-width="1.33333" stroke-linejoin="round" stroke-miterlimit="10" fill="none" fill-rule="evenodd"/><path d="M801.893 381.12 906.48 381.12" stroke="#7F7F7F" stroke-width="1.33333" stroke-linejoin="round" stroke-miterlimit="10" fill="none" fill-rule="evenodd"/><text font-family="Cambria Math,Cambria Math_MSFontService,sans-serif" font-weight="400" font-size="24" transform="translate(869.66 93)">ğ‘š</text><text font-family="Cambria Math,Cambria Math_MSFontService,sans-serif" font-weight="400" font-size="24" transform="translate(820.986 93)">ğœ‹</text><text fill="#E8E8E8" font-family="Cambria Math,Cambria Math_MSFontService,sans-serif" font-weight="400" font-size="24" transform="translate(864.287 181)">ğ‘š</text><text fill="#E8E8E8" font-family="Cambria Math,Cambria Math_MSFontService,sans-serif" font-weight="400" font-size="18" transform="translate(884.453 186)">2</text><text fill="#E8E8E8" font-family="Cambria Math,Cambria Math_MSFontService,sans-serif" font-weight="400" font-size="24" transform="translate(815.66 181)">ğœ‹</text><text fill="#E8E8E8" font-family="Cambria Math,Cambria Math_MSFontService,sans-serif" font-weight="400" font-size="18" transform="translate(829.826 186)">2</text><text fill="#E8E8E8" font-family="Cambria Math,Cambria Math_MSFontService,sans-serif" font-weight="400" font-size="24" transform="translate(864.567 320)">ğ‘š</text><text fill="#E8E8E8" font-family="Cambria Math,Cambria Math_MSFontService,sans-serif" font-weight="400" font-size="18" transform="translate(884.18 324)">1</text><text fill="#E8E8E8" font-family="Cambria Math,Cambria Math_MSFontService,sans-serif" font-weight="400" font-size="24" transform="translate(815.94 320)">ğœ‹</text><text fill="#E8E8E8" font-family="Cambria Math,Cambria Math_MSFontService,sans-serif" font-weight="400" font-size="18" transform="translate(829.553 324)">1</text><text font-family="Aptos,Aptos_MSFontService,sans-serif" font-style="italic" font-weight="400" font-size="16" transform="translate(552.32 417)">In</text><text font-family="Aptos,Aptos_MSFontService,sans-serif" font-style="italic" font-weight="400" font-size="16" transform="translate(565.32 417)">-</text><text font-family="Aptos,Aptos_MSFontService,sans-serif" font-style="italic" font-weight="400" font-size="16" transform="translate(570.82 417)">sample</text><text font-family="Aptos,Aptos_MSFontService,sans-serif" font-style="italic" font-weight="400" font-size="16" transform="translate(552.32 436)">prediction</text><path d="M541.804 370.405 557.035 390.968 555.428 392.158 540.196 371.595ZM558.652 388.111 560.2 396.92 552.224 392.872Z"/><text font-family="Aptos,Aptos_MSFontService,sans-serif" font-style="italic" font-weight="400" font-size="16" transform="translate(424.4 417)">selected</text><path d="M0.668908-0.743345 21.7139 18.1942 20.3761 19.6809-0.668908 0.743345ZM22.7295 15.0723 26.0006 23.397 17.3782 21.0191Z" fill="#E97132" transform="matrix(-1 0 0 1 482.001 374)"/><text font-family="IBM Plex Sans Medium,IBM Plex Sans Medium_MSFontService,sans-serif" font-weight="500" font-size="32" transform="translate(397.427 47)">C</text><text font-family="IBM Plex Sans Medium,IBM Plex Sans Medium_MSFontService,sans-serif" font-weight="500" font-size="32" transform="translate(417.76 47)">ross</text><text font-family="IBM Plex Sans Medium,IBM Plex Sans Medium_MSFontService,sans-serif" font-weight="500" font-size="32" transform="translate(479.76 47)">-</text><text font-family="IBM Plex Sans Medium,IBM Plex Sans Medium_MSFontService,sans-serif" font-weight="500" font-size="32" transform="translate(492.593 47)">fitting</text><rect x="247" y="99" width="39" height="141" stroke="#042433" stroke-width="2" stroke-miterlimit="8" fill="#7F7F7F"/><text fill="#FFFFFF" font-family="Cambria Math,Cambria Math_MSFontService,sans-serif" font-weight="400" font-size="24" transform="translate(251.097 177)">ğ´</text><text fill="#FFFFFF" font-family="Cambria Math,Cambria Math_MSFontService,sans-serif" font-weight="400" font-size="18" transform="translate(265.71 182)">1</text><rect x="247" y="240" width="39" height="141" stroke="#042433" stroke-width="2" stroke-miterlimit="8" fill="#7F7F7F"/><text fill="#FFFFFF" font-family="Cambria Math,Cambria Math_MSFontService,sans-serif" font-weight="400" font-size="24" transform="translate(250.82 318)">ğ´</text><text fill="#FFFFFF" font-family="Cambria Math,Cambria Math_MSFontService,sans-serif" font-weight="400" font-size="18" transform="translate(265.987 323)">2</text><rect x="286" y="99" width="39" height="141" stroke="#042433" stroke-width="2" stroke-miterlimit="8" fill="#7F7F7F"/><text fill="#FFFFFF" font-family="Cambria Math,Cambria Math_MSFontService,sans-serif" font-weight="400" font-size="24" transform="translate(292.439 177)">ğ‘Œ</text><text fill="#FFFFFF" font-family="Cambria Math,Cambria Math_MSFontService,sans-serif" font-weight="400" font-size="18" transform="translate(302.446 182)">1</text><rect x="286" y="240" width="39" height="141" stroke="#042433" stroke-width="2" stroke-miterlimit="8" fill="#7F7F7F"/><text fill="#FFFFFF" font-family="Cambria Math,Cambria Math_MSFontService,sans-serif" font-weight="400" font-size="24" transform="translate(292.163 318)">ğ‘Œ</text><text fill="#FFFFFF" font-family="Cambria Math,Cambria Math_MSFontService,sans-serif" font-weight="400" font-size="18" transform="translate(302.723 323)">2</text></g></svg>