<svg width="1280" height="720" xmlns="http://www.w3.org/2000/svg" xmlns:xlink="http://www.w3.org/1999/xlink" overflow="hidden"><g><rect x="0" y="0" width="1280" height="720" fill="#FFFFFF"/><rect x="71" y="99" width="176" height="94" stroke="#042433" stroke-width="2" stroke-miterlimit="8" fill="#7F7F7F"/><text fill="#FFFFFF" font-family="Cambria Math,Cambria Math_MSFontService,sans-serif" font-weight="400" font-size="24" transform="translate(143.937 154)">𝑋</text><text fill="#FFFFFF" font-family="Cambria Math,Cambria Math_MSFontService,sans-serif" font-weight="400" font-size="18" transform="translate(157.83 158)">1</text><rect x="71" y="193" width="176" height="94" stroke="#042433" stroke-width="2" stroke-miterlimit="8" fill="#7F7F7F"/><text fill="#FFFFFF" font-family="Cambria Math,Cambria Math_MSFontService,sans-serif" font-weight="400" font-size="24" transform="translate(143.66 248)">𝑋</text><text fill="#FFFFFF" font-family="Cambria Math,Cambria Math_MSFontService,sans-serif" font-weight="400" font-size="18" transform="translate(158.107 253)">2</text><rect x="71" y="287" width="176" height="94" stroke="#042433" stroke-width="2" stroke-miterlimit="8" fill="#7F7F7F"/><text fill="#FFFFFF" font-family="Cambria Math,Cambria Math_MSFontService,sans-serif" font-weight="400" font-size="24" transform="translate(143.66 342)">𝑋</text><text fill="#FFFFFF" font-family="Cambria Math,Cambria Math_MSFontService,sans-serif" font-weight="400" font-size="18" transform="translate(158.107 347)">3</text><text fill="#E97132" font-family="Cambria Math,Cambria Math_MSFontService,sans-serif" font-weight="400" font-size="24" transform="translate(372.033 139)">𝜋</text><text fill="#E97132" font-family="Cambria Math,Cambria Math_MSFontService,sans-serif" font-weight="400" font-size="18" transform="translate(385.647 144)">1</text><text fill="#E97132" font-family="Cambria Math,Cambria Math_MSFontService,sans-serif" font-weight="400" font-size="24" transform="translate(369.033 168)">𝑚</text><text fill="#E97132" font-family="Cambria Math,Cambria Math_MSFontService,sans-serif" font-weight="400" font-size="18" transform="translate(388.647 173)">1</text><text fill="#0F9ED5" font-family="Cambria Math,Cambria Math_MSFontService,sans-serif" font-weight="400" font-size="24" transform="translate(371.76 233)">𝜋</text><text fill="#0F9ED5" font-family="Cambria Math,Cambria Math_MSFontService,sans-serif" font-weight="400" font-size="18" transform="translate(385.927 238)">2</text><text fill="#0F9ED5" font-family="Cambria Math,Cambria Math_MSFontService,sans-serif" font-weight="400" font-size="24" transform="translate(368.76 262)">𝑚</text><text fill="#0F9ED5" font-family="Cambria Math,Cambria Math_MSFontService,sans-serif" font-weight="400" font-size="18" transform="translate(388.927 267)">2</text><text fill="#4EA72E" font-family="Cambria Math,Cambria Math_MSFontService,sans-serif" font-weight="400" font-size="24" transform="translate(371.76 320)">𝜋</text><text fill="#4EA72E" font-family="Cambria Math,Cambria Math_MSFontService,sans-serif" font-weight="400" font-size="18" transform="translate(385.927 325)">3</text><text fill="#4EA72E" font-family="Cambria Math,Cambria Math_MSFontService,sans-serif" font-weight="400" font-size="24" transform="translate(368.76 349)">𝑚</text><text fill="#4EA72E" font-family="Cambria Math,Cambria Math_MSFontService,sans-serif" font-weight="400" font-size="18" transform="translate(388.927 354)">3</text><path d="M460.8 104.581 512.427 104.581 512.427 196.761 460.8 196.761Z" fill="#595959" fill-rule="evenodd"/><path d="M512.427 104.581 564.054 104.581 564.054 196.761 512.427 196.761Z" fill="#D1D1D1" fill-rule="evenodd"/><path d="M564.054 104.581 615.68 104.581 615.68 196.761 564.054 196.761Z" fill="#4EA72E" fill-rule="evenodd"/><path d="M460.8 196.761 512.427 196.761 512.427 288.94 460.8 288.94Z" fill="#E97132" fill-rule="evenodd"/><path d="M512.427 196.761 564.054 196.761 564.054 288.94 512.427 288.94Z" fill="#595959" fill-rule="evenodd"/><path d="M564.054 196.761 615.68 196.761 615.68 288.94 564.054 288.94Z" fill="#D1D1D1" fill-rule="evenodd"/><path d="M460.8 288.94 512.427 288.94 512.427 381.12 460.8 381.12Z" fill="#D1D1D1" fill-rule="evenodd"/><path d="M512.427 288.94 564.054 288.94 564.054 381.12 512.427 381.12Z" fill="#0F9ED5" fill-rule="evenodd"/><path d="M564.054 288.94 615.68 288.94 615.68 381.12 564.054 381.12Z" fill="#595959" fill-rule="evenodd"/><path d="M512.427 103.914 512.427 381.787" stroke="#7F7F7F" stroke-width="1.33333" stroke-linejoin="round" stroke-miterlimit="10" fill="none" fill-rule="evenodd"/><path d="M564.054 103.914 564.054 381.787" stroke="#7F7F7F" stroke-width="1.33333" stroke-linejoin="round" stroke-miterlimit="10" fill="none" fill-rule="evenodd"/><path d="M460.133 104.581 616.347 104.581" stroke="#7F7F7F" stroke-width="1.33333" stroke-linejoin="round" stroke-miterlimit="10" fill="none" fill-rule="evenodd"/><path d="M460.133 196.761 616.347 196.761" stroke="#7F7F7F" stroke-width="1.33333" stroke-linejoin="round" stroke-miterlimit="10" fill="none" fill-rule="evenodd"/><path d="M460.133 288.94 616.347 288.94" stroke="#7F7F7F" stroke-width="1.33333" stroke-linejoin="round" stroke-miterlimit="10" fill="none" fill-rule="evenodd"/><path d="M460.8 103.914 460.8 381.787" stroke="#7F7F7F" stroke-width="1.33333" stroke-linejoin="round" stroke-miterlimit="10" fill="none" fill-rule="evenodd"/><path d="M615.68 103.914 615.68 381.787" stroke="#7F7F7F" stroke-width="1.33333" stroke-linejoin="round" stroke-miterlimit="10" fill="none" fill-rule="evenodd"/><path d="M460.133 381.12 616.347 381.12" stroke="#7F7F7F" stroke-width="1.33333" stroke-linejoin="round" stroke-miterlimit="10" fill="none" fill-rule="evenodd"/><text fill="#4EA72E" font-family="Cambria Math,Cambria Math_MSFontService,sans-serif" font-weight="400" font-size="24" transform="translate(577.154 93)">𝜋</text><text fill="#4EA72E" font-family="Cambria Math,Cambria Math_MSFontService,sans-serif" font-weight="400" font-size="18" transform="translate(591.32 98)">3</text><text fill="#0F9ED5" font-family="Cambria Math,Cambria Math_MSFontService,sans-serif" font-weight="400" font-size="24" transform="translate(525.527 93)">𝜋</text><text fill="#0F9ED5" font-family="Cambria Math,Cambria Math_MSFontService,sans-serif" font-weight="400" font-size="18" transform="translate(539.693 98)">2</text><text fill="#E97132" font-family="Cambria Math,Cambria Math_MSFontService,sans-serif" font-weight="400" font-size="24" transform="translate(474.18 93)">𝜋</text><text fill="#E97132" font-family="Cambria Math,Cambria Math_MSFontService,sans-serif" font-weight="400" font-size="18" transform="translate(487.793 98)">1</text><g><text fill="#E8E8E8" font-family="Cambria Math,Cambria Math_MSFontService,sans-serif" font-weight="400" font-size="15" transform="translate(566.917 156)">𝜋</text></g><text fill="#E8E8E8" font-family="Cambria Math,Cambria Math_MSFontService,sans-serif" font-weight="400" font-size="11" transform="translate(575.584 159)">3</text><g><path d="M604.206 144.654C605.632 145.03 606.727 145.842 607.491 147.089 608.255 148.337 608.638 149.842 608.638 151.604 608.638 153.372 608.257 154.877 607.495 156.12 606.733 157.363 605.637 158.172 604.206 158.548L604.031 157.984C605.159 157.608 605.997 156.866 606.546 155.757 607.096 154.649 607.37 153.24 607.37 151.531 607.37 149.881 607.097 148.51 606.55 147.419 606.003 146.327 605.156 145.594 604.009 145.218ZM588.106 144.654 588.304 145.218C587.162 145.594 586.316 146.327 585.766 147.419 585.217 148.51 584.942 149.881 584.942 151.531 584.942 153.24 585.217 154.649 585.766 155.757 586.316 156.866 587.154 157.608 588.282 157.984L588.106 158.548C586.676 158.172 585.58 157.363 584.818 156.12 584.056 154.877 583.675 153.372 583.675 151.604 583.675 149.842 584.057 148.337 584.822 147.089 585.586 145.842 586.681 145.03 588.106 144.654Z" fill="#E8E8E8" fill-rule="evenodd"/></g><text fill="#E8E8E8" font-family="Cambria Math,Cambria Math_MSFontService,sans-serif" font-weight="400" font-size="15" transform="translate(588.444 156)">𝑋</text><text fill="#E8E8E8" font-family="Cambria Math,Cambria Math_MSFontService,sans-serif" font-weight="400" font-size="11" transform="translate(596.957 159)">1</text><g><text fill="#E8E8E8" font-family="Cambria Math,Cambria Math_MSFontService,sans-serif" font-weight="400" font-size="15" transform="translate(515.29 156)">𝜋</text></g><text fill="#E8E8E8" font-family="Cambria Math,Cambria Math_MSFontService,sans-serif" font-weight="400" font-size="11" transform="translate(523.957 159)">2</text><g><path d="M552.58 144.654C554.005 145.03 555.1 145.842 555.865 147.089 556.629 148.337 557.011 149.842 557.011 151.604 557.011 153.372 556.63 154.877 555.868 156.12 555.106 157.363 554.01 158.172 552.58 158.548L552.404 157.984C553.532 157.608 554.37 156.866 554.92 155.757 555.469 154.649 555.744 153.24 555.744 151.531 555.744 149.881 555.47 148.51 554.923 147.419 554.376 146.327 553.529 145.594 552.382 145.218ZM536.48 144.654 536.677 145.218C535.535 145.594 534.689 146.327 534.14 147.419 533.59 148.51 533.316 149.881 533.316 151.531 533.316 153.24 533.59 154.649 534.14 155.757 534.689 156.866 535.528 157.608 536.655 157.984L536.48 158.548C535.049 158.172 533.953 157.363 533.191 156.12 532.429 154.877 532.049 153.372 532.049 151.604 532.049 149.842 532.431 148.337 533.195 147.089 533.959 145.842 535.054 145.03 536.48 144.654Z" fill="#E8E8E8" fill-rule="evenodd"/></g><text fill="#E8E8E8" font-family="Cambria Math,Cambria Math_MSFontService,sans-serif" font-weight="400" font-size="15" transform="translate(536.817 156)">𝑋</text><text fill="#E8E8E8" font-family="Cambria Math,Cambria Math_MSFontService,sans-serif" font-weight="400" font-size="11" transform="translate(545.33 159)">1</text><g><text fill="#E8E8E8" font-family="Cambria Math,Cambria Math_MSFontService,sans-serif" font-weight="400" font-size="15" transform="translate(463.833 156)">𝜋</text></g><text fill="#E8E8E8" font-family="Cambria Math,Cambria Math_MSFontService,sans-serif" font-weight="400" font-size="11" transform="translate(472.16 159)">1</text><g><path d="M500.783 144.654C502.209 145.03 503.304 145.842 504.068 147.089 504.832 148.337 505.214 149.842 505.214 151.604 505.214 153.372 504.833 154.877 504.071 156.12 503.31 157.363 502.213 158.172 500.783 158.548L500.607 157.984C501.735 157.608 502.574 156.866 503.123 155.757 503.672 154.649 503.947 153.24 503.947 151.531 503.947 149.881 503.673 148.51 503.127 147.419 502.58 146.327 501.732 145.594 500.585 145.218ZM484.683 144.654 484.881 145.218C483.738 145.594 482.892 146.327 482.343 147.419 481.793 148.51 481.519 149.881 481.519 151.531 481.519 153.24 481.793 154.649 482.343 155.757 482.892 156.866 483.731 157.608 484.859 157.984L484.683 158.548C483.252 158.172 482.156 157.363 481.394 156.12 480.633 154.877 480.252 153.372 480.252 151.604 480.252 149.842 480.634 148.337 481.398 147.089 482.162 145.842 483.257 145.03 484.683 144.654Z" fill="#E8E8E8" fill-rule="evenodd"/></g><text fill="#E8E8E8" font-family="Cambria Math,Cambria Math_MSFontService,sans-serif" font-weight="400" font-size="15" transform="translate(485.02 156)">𝑋</text><text fill="#E8E8E8" font-family="Cambria Math,Cambria Math_MSFontService,sans-serif" font-weight="400" font-size="11" transform="translate(493.533 159)">1</text><g><text fill="#E8E8E8" font-family="Cambria Math,Cambria Math_MSFontService,sans-serif" font-weight="400" font-size="15" transform="translate(566.747 248)">𝜋</text></g><text fill="#E8E8E8" font-family="Cambria Math,Cambria Math_MSFontService,sans-serif" font-weight="400" font-size="11" transform="translate(575.414 251)">3</text><g><path d="M604.376 236.834C605.802 237.21 606.897 238.021 607.661 239.269 608.425 240.516 608.807 242.022 608.807 243.784 608.807 245.552 608.427 247.057 607.665 248.3 606.903 249.542 605.807 250.352 604.376 250.728L604.201 250.164C605.328 249.788 606.167 249.046 606.716 247.937 607.266 246.829 607.54 245.42 607.54 243.711 607.54 242.061 607.267 240.69 606.72 239.599 606.173 238.507 605.326 237.774 604.179 237.398ZM587.936 236.834 588.134 237.398C586.992 237.774 586.146 238.507 585.596 239.599 585.047 240.69 584.772 242.061 584.772 243.711 584.772 245.42 585.047 246.829 585.596 247.937 586.146 249.046 586.984 249.788 588.112 250.164L587.936 250.728C586.506 250.352 585.41 249.542 584.648 248.3 583.886 247.057 583.505 245.552 583.505 243.784 583.505 242.022 583.887 240.516 584.652 239.269 585.416 238.021 586.511 237.21 587.936 236.834Z" fill="#E8E8E8" fill-rule="evenodd"/></g><text fill="#E8E8E8" font-family="Cambria Math,Cambria Math_MSFontService,sans-serif" font-weight="400" font-size="15" transform="translate(588.274 248)">𝑋</text><text fill="#E8E8E8" font-family="Cambria Math,Cambria Math_MSFontService,sans-serif" font-weight="400" font-size="11" transform="translate(597.127 251)">2</text><g><text fill="#E8E8E8" font-family="Cambria Math,Cambria Math_MSFontService,sans-serif" font-weight="400" font-size="15" transform="translate(515.12 248)">𝜋</text></g><text fill="#E8E8E8" font-family="Cambria Math,Cambria Math_MSFontService,sans-serif" font-weight="400" font-size="11" transform="translate(523.787 251)">2</text><g><path d="M552.75 236.834C554.175 237.21 555.27 238.021 556.034 239.269 556.799 240.516 557.181 242.022 557.181 243.784 557.181 245.552 556.8 247.057 556.038 248.3 555.276 249.542 554.18 250.352 552.75 250.728L552.574 250.164C553.702 249.788 554.54 249.046 555.09 247.937 555.639 246.829 555.914 245.42 555.914 243.711 555.914 242.061 555.64 240.69 555.093 239.599 554.546 238.507 553.699 237.774 552.552 237.398ZM536.31 236.834 536.507 237.398C535.365 237.774 534.519 238.507 533.97 239.599 533.42 240.69 533.146 242.061 533.146 243.711 533.146 245.42 533.42 246.829 533.97 247.937 534.519 249.046 535.358 249.788 536.485 250.164L536.31 250.728C534.879 250.352 533.783 249.542 533.021 248.3 532.259 247.057 531.879 245.552 531.879 243.784 531.879 242.022 532.261 240.516 533.025 239.269 533.789 238.021 534.884 237.21 536.31 236.834Z" fill="#E8E8E8" fill-rule="evenodd"/></g><text fill="#E8E8E8" font-family="Cambria Math,Cambria Math_MSFontService,sans-serif" font-weight="400" font-size="15" transform="translate(536.647 248)">𝑋</text><text fill="#E8E8E8" font-family="Cambria Math,Cambria Math_MSFontService,sans-serif" font-weight="400" font-size="11" transform="translate(545.5 251)">2</text><g><text fill="#E8E8E8" font-family="Cambria Math,Cambria Math_MSFontService,sans-serif" font-weight="400" font-size="15" transform="translate(463.663 248)">𝜋</text></g><text fill="#E8E8E8" font-family="Cambria Math,Cambria Math_MSFontService,sans-serif" font-weight="400" font-size="11" transform="translate(471.99 251)">1</text><g><path d="M500.953 236.834C502.379 237.21 503.474 238.021 504.238 239.269 505.002 240.516 505.384 242.022 505.384 243.784 505.384 245.552 505.003 247.057 504.241 248.3 503.48 249.542 502.383 250.352 500.953 250.728L500.777 250.164C501.905 249.788 502.744 249.046 503.293 247.937 503.842 246.829 504.117 245.42 504.117 243.711 504.117 242.061 503.843 240.69 503.297 239.599 502.75 238.507 501.902 237.774 500.755 237.398ZM484.513 236.834 484.711 237.398C483.568 237.774 482.722 238.507 482.173 239.599 481.623 240.69 481.349 242.061 481.349 243.711 481.349 245.42 481.623 246.829 482.173 247.937 482.722 249.046 483.561 249.788 484.689 250.164L484.513 250.728C483.082 250.352 481.986 249.542 481.224 248.3 480.463 247.057 480.082 245.552 480.082 243.784 480.082 242.022 480.464 240.516 481.228 239.269 481.992 238.021 483.087 237.21 484.513 236.834Z" fill="#E8E8E8" fill-rule="evenodd"/></g><text fill="#E8E8E8" font-family="Cambria Math,Cambria Math_MSFontService,sans-serif" font-weight="400" font-size="15" transform="translate(484.85 248)">𝑋</text><text fill="#E8E8E8" font-family="Cambria Math,Cambria Math_MSFontService,sans-serif" font-weight="400" font-size="11" transform="translate(493.703 251)">2</text><g><text fill="#E8E8E8" font-family="Cambria Math,Cambria Math_MSFontService,sans-serif" font-weight="400" font-size="15" transform="translate(566.747 340)">𝜋</text></g><text fill="#E8E8E8" font-family="Cambria Math,Cambria Math_MSFontService,sans-serif" font-weight="400" font-size="11" transform="translate(575.414 343)">3</text><g><path d="M604.376 329.013C605.802 329.389 606.897 330.201 607.661 331.449 608.425 332.696 608.807 334.201 608.807 335.964 608.807 337.732 608.427 339.237 607.665 340.48 606.903 341.722 605.807 342.532 604.376 342.908L604.201 342.344C605.328 341.968 606.167 341.225 606.716 340.117 607.266 339.009 607.54 337.6 607.54 335.891 607.54 334.241 607.267 332.87 606.72 331.778 606.173 330.687 605.326 329.953 604.179 329.577ZM587.936 329.013 588.134 329.577C586.992 329.953 586.146 330.687 585.596 331.778 585.047 332.87 584.772 334.241 584.772 335.891 584.772 337.6 585.047 339.009 585.596 340.117 586.146 341.225 586.984 341.968 588.112 342.344L587.936 342.908C586.506 342.532 585.41 341.722 584.648 340.48 583.886 339.237 583.505 337.732 583.505 335.964 583.505 334.201 583.887 332.696 584.652 331.449 585.416 330.201 586.511 329.389 587.936 329.013Z" fill="#E8E8E8" fill-rule="evenodd"/></g><text fill="#E8E8E8" font-family="Cambria Math,Cambria Math_MSFontService,sans-serif" font-weight="400" font-size="15" transform="translate(588.274 340)">𝑋</text><text fill="#E8E8E8" font-family="Cambria Math,Cambria Math_MSFontService,sans-serif" font-weight="400" font-size="11" transform="translate(597.127 343)">3</text><g><text fill="#E8E8E8" font-family="Cambria Math,Cambria Math_MSFontService,sans-serif" font-weight="400" font-size="15" transform="translate(515.12 340)">𝜋</text></g><text fill="#E8E8E8" font-family="Cambria Math,Cambria Math_MSFontService,sans-serif" font-weight="400" font-size="11" transform="translate(523.787 343)">2</text><g><path d="M552.75 329.013C554.175 329.389 555.27 330.201 556.034 331.449 556.799 332.696 557.181 334.201 557.181 335.964 557.181 337.732 556.8 339.237 556.038 340.48 555.276 341.722 554.18 342.532 552.75 342.908L552.574 342.344C553.702 341.968 554.54 341.225 555.09 340.117 555.639 339.009 555.914 337.6 555.914 335.891 555.914 334.241 555.64 332.87 555.093 331.778 554.546 330.687 553.699 329.953 552.552 329.577ZM536.31 329.013 536.507 329.577C535.365 329.953 534.519 330.687 533.97 331.778 533.42 332.87 533.146 334.241 533.146 335.891 533.146 337.6 533.42 339.009 533.97 340.117 534.519 341.225 535.358 341.968 536.485 342.344L536.31 342.908C534.879 342.532 533.783 341.722 533.021 340.48 532.259 339.237 531.879 337.732 531.879 335.964 531.879 334.201 532.261 332.696 533.025 331.449 533.789 330.201 534.884 329.389 536.31 329.013Z" fill="#E8E8E8" fill-rule="evenodd"/></g><text fill="#E8E8E8" font-family="Cambria Math,Cambria Math_MSFontService,sans-serif" font-weight="400" font-size="15" transform="translate(536.647 340)">𝑋</text><text fill="#E8E8E8" font-family="Cambria Math,Cambria Math_MSFontService,sans-serif" font-weight="400" font-size="11" transform="translate(545.5 343)">3</text><g><text fill="#E8E8E8" font-family="Cambria Math,Cambria Math_MSFontService,sans-serif" font-weight="400" font-size="15" transform="translate(463.663 340)">𝜋</text></g><text fill="#E8E8E8" font-family="Cambria Math,Cambria Math_MSFontService,sans-serif" font-weight="400" font-size="11" transform="translate(471.99 343)">1</text><g><path d="M500.953 329.013C502.379 329.389 503.474 330.201 504.238 331.449 505.002 332.696 505.384 334.201 505.384 335.964 505.384 337.732 505.003 339.237 504.241 340.48 503.48 341.722 502.383 342.532 500.953 342.908L500.777 342.344C501.905 341.968 502.744 341.225 503.293 340.117 503.842 339.009 504.117 337.6 504.117 335.891 504.117 334.241 503.843 332.87 503.297 331.778 502.75 330.687 501.902 329.953 500.755 329.577ZM484.513 329.013 484.711 329.577C483.568 329.953 482.722 330.687 482.173 331.778 481.623 332.87 481.349 334.241 481.349 335.891 481.349 337.6 481.623 339.009 482.173 340.117 482.722 341.225 483.561 341.968 484.689 342.344L484.513 342.908C483.082 342.532 481.986 341.722 481.224 340.48 480.463 339.237 480.082 337.732 480.082 335.964 480.082 334.201 480.464 332.696 481.228 331.449 481.992 330.201 483.087 329.389 484.513 329.013Z" fill="#E8E8E8" fill-rule="evenodd"/></g><text fill="#E8E8E8" font-family="Cambria Math,Cambria Math_MSFontService,sans-serif" font-weight="400" font-size="15" transform="translate(484.85 340)">𝑋</text><text fill="#E8E8E8" font-family="Cambria Math,Cambria Math_MSFontService,sans-serif" font-weight="400" font-size="11" transform="translate(493.703 343)">3</text><path d="M664.32 104.58 715.947 104.58 715.947 196.76 664.32 196.76Z" fill="#595959" fill-rule="evenodd"/><path d="M715.947 104.58 767.573 104.58 767.573 196.76 715.947 196.76Z" fill="#0F9ED5" fill-rule="evenodd"/><path d="M767.573 104.58 819.2 104.58 819.2 196.76 767.573 196.76Z" fill="#D1D1D1" fill-rule="evenodd"/><path d="M664.32 196.76 715.947 196.76 715.947 288.94 664.32 288.94Z" fill="#D1D1D1" fill-rule="evenodd"/><path d="M715.947 196.76 767.573 196.76 767.573 288.94 715.947 288.94Z" fill="#595959" fill-rule="evenodd"/><path d="M767.573 196.76 819.2 196.76 819.2 288.94 767.573 288.94Z" fill="#4EA72E" fill-rule="evenodd"/><path d="M664.32 288.94 715.947 288.94 715.947 381.12 664.32 381.12Z" fill="#E97132" fill-rule="evenodd"/><path d="M715.947 288.94 767.573 288.94 767.573 381.12 715.947 381.12Z" fill="#D1D1D1" fill-rule="evenodd"/><path d="M767.573 288.94 819.2 288.94 819.2 381.12 767.573 381.12Z" fill="#595959" fill-rule="evenodd"/><path d="M715.947 103.914 715.947 381.787" stroke="#7F7F7F" stroke-width="1.33333" stroke-linejoin="round" stroke-miterlimit="10" fill="none" fill-rule="evenodd"/><path d="M767.573 103.914 767.573 381.787" stroke="#7F7F7F" stroke-width="1.33333" stroke-linejoin="round" stroke-miterlimit="10" fill="none" fill-rule="evenodd"/><path d="M663.653 104.58 819.867 104.58" stroke="#7F7F7F" stroke-width="1.33333" stroke-linejoin="round" stroke-miterlimit="10" fill="none" fill-rule="evenodd"/><path d="M663.653 196.76 819.867 196.76" stroke="#7F7F7F" stroke-width="1.33333" stroke-linejoin="round" stroke-miterlimit="10" fill="none" fill-rule="evenodd"/><path d="M663.653 288.94 819.867 288.94" stroke="#7F7F7F" stroke-width="1.33333" stroke-linejoin="round" stroke-miterlimit="10" fill="none" fill-rule="evenodd"/><path d="M664.32 103.914 664.32 381.787" stroke="#7F7F7F" stroke-width="1.33333" stroke-linejoin="round" stroke-miterlimit="10" fill="none" fill-rule="evenodd"/><path d="M819.2 103.914 819.2 381.787" stroke="#7F7F7F" stroke-width="1.33333" stroke-linejoin="round" stroke-miterlimit="10" fill="none" fill-rule="evenodd"/><path d="M663.653 381.12 819.867 381.12" stroke="#7F7F7F" stroke-width="1.33333" stroke-linejoin="round" stroke-miterlimit="10" fill="none" fill-rule="evenodd"/><text fill="#4EA72E" font-family="Cambria Math,Cambria Math_MSFontService,sans-serif" font-weight="400" font-size="24" transform="translate(777.673 93)">𝑚</text><text fill="#4EA72E" font-family="Cambria Math,Cambria Math_MSFontService,sans-serif" font-weight="400" font-size="18" transform="translate(797.84 98)">3</text><text fill="#0F9ED5" font-family="Cambria Math,Cambria Math_MSFontService,sans-serif" font-weight="400" font-size="24" transform="translate(726.047 93)">𝑚</text><text fill="#0F9ED5" font-family="Cambria Math,Cambria Math_MSFontService,sans-serif" font-weight="400" font-size="18" transform="translate(746.213 98)">2</text><text fill="#E97132" font-family="Cambria Math,Cambria Math_MSFontService,sans-serif" font-weight="400" font-size="24" transform="translate(674.7 93)">𝑚</text><text fill="#E97132" font-family="Cambria Math,Cambria Math_MSFontService,sans-serif" font-weight="400" font-size="18" transform="translate(694.313 98)">1</text><g><text fill="#E8E8E8" font-family="Cambria Math,Cambria Math_MSFontService,sans-serif" font-weight="400" font-size="15" transform="translate(768.603 156)">𝑚</text></g><text fill="#E8E8E8" font-family="Cambria Math,Cambria Math_MSFontService,sans-serif" font-weight="400" font-size="11" transform="translate(780.937 159)">3</text><g><path d="M809.56 144.654C810.985 145.03 812.08 145.841 812.844 147.089 813.609 148.336 813.991 149.842 813.991 151.604 813.991 153.372 813.61 154.877 812.848 156.12 812.086 157.362 810.99 158.172 809.56 158.548L809.384 157.984C810.512 157.608 811.35 156.865 811.9 155.757 812.449 154.649 812.724 153.24 812.724 151.531 812.724 149.881 812.45 148.51 811.903 147.418 811.356 146.327 810.509 145.594 809.362 145.218ZM793.46 144.654 793.657 145.218C792.515 145.594 791.669 146.327 791.12 147.418 790.57 148.51 790.296 149.881 790.296 151.531 790.296 153.24 790.57 154.649 791.12 155.757 791.669 156.865 792.508 157.608 793.635 157.984L793.46 158.548C792.029 158.172 790.933 157.362 790.171 156.12 789.409 154.877 789.029 153.372 789.029 151.604 789.029 149.842 789.411 148.336 790.175 147.089 790.939 145.841 792.034 145.03 793.46 144.654Z" fill="#E8E8E8" fill-rule="evenodd"/></g><text fill="#E8E8E8" font-family="Cambria Math,Cambria Math_MSFontService,sans-serif" font-weight="400" font-size="15" transform="translate(793.797 156)">𝑋</text><text fill="#E8E8E8" font-family="Cambria Math,Cambria Math_MSFontService,sans-serif" font-weight="400" font-size="11" transform="translate(802.31 159)">1</text><g><text fill="#E8E8E8" font-family="Cambria Math,Cambria Math_MSFontService,sans-serif" font-weight="400" font-size="15" transform="translate(716.977 156)">𝑚</text></g><text fill="#E8E8E8" font-family="Cambria Math,Cambria Math_MSFontService,sans-serif" font-weight="400" font-size="11" transform="translate(729.31 159)">2</text><g><path d="M757.933 144.654C759.359 145.03 760.453 145.841 761.218 147.089 761.982 148.336 762.364 149.842 762.364 151.604 762.364 153.372 761.983 154.877 761.221 156.12 760.46 157.362 759.363 158.172 757.933 158.548L757.757 157.984C758.885 157.608 759.724 156.865 760.273 155.757 760.822 154.649 761.097 153.24 761.097 151.531 761.097 149.881 760.823 148.51 760.276 147.418 759.73 146.327 758.882 145.594 757.735 145.218ZM741.833 144.654 742.031 145.218C740.888 145.594 740.042 146.327 739.493 147.418 738.943 148.51 738.669 149.881 738.669 151.531 738.669 153.24 738.943 154.649 739.493 155.757 740.042 156.865 740.881 157.608 742.009 157.984L741.833 158.548C740.402 158.172 739.306 157.362 738.544 156.12 737.783 154.877 737.402 153.372 737.402 151.604 737.402 149.842 737.784 148.336 738.548 147.089 739.312 145.841 740.407 145.03 741.833 144.654Z" fill="#E8E8E8" fill-rule="evenodd"/></g><text fill="#E8E8E8" font-family="Cambria Math,Cambria Math_MSFontService,sans-serif" font-weight="400" font-size="15" transform="translate(742.17 156)">𝑋</text><text fill="#E8E8E8" font-family="Cambria Math,Cambria Math_MSFontService,sans-serif" font-weight="400" font-size="11" transform="translate(750.683 159)">1</text><g><text fill="#E8E8E8" font-family="Cambria Math,Cambria Math_MSFontService,sans-serif" font-weight="400" font-size="15" transform="translate(665.52 156)">𝑚</text></g><text fill="#E8E8E8" font-family="Cambria Math,Cambria Math_MSFontService,sans-serif" font-weight="400" font-size="11" transform="translate(677.513 159)">1</text><g><path d="M706.136 144.654C707.562 145.03 708.657 145.841 709.421 147.089 710.185 148.336 710.567 149.842 710.567 151.604 710.567 153.372 710.186 154.877 709.425 156.12 708.663 157.362 707.567 158.172 706.136 158.548L705.96 157.984C707.088 157.608 707.927 156.865 708.476 155.757 709.025 154.649 709.3 153.24 709.3 151.531 709.3 149.881 709.027 148.51 708.48 147.418 707.933 146.327 707.086 145.594 705.938 145.218ZM690.036 144.654 690.234 145.218C689.091 145.594 688.245 146.327 687.696 147.418 687.147 148.51 686.872 149.881 686.872 151.531 686.872 153.24 687.147 154.649 687.696 155.757 688.245 156.865 689.084 157.608 690.212 157.984L690.036 158.548C688.605 158.172 687.509 157.362 686.748 156.12 685.986 154.877 685.605 153.372 685.605 151.604 685.605 149.842 685.987 148.336 686.751 147.089 687.515 145.841 688.61 145.03 690.036 144.654Z" fill="#E8E8E8" fill-rule="evenodd"/></g><text fill="#E8E8E8" font-family="Cambria Math,Cambria Math_MSFontService,sans-serif" font-weight="400" font-size="15" transform="translate(690.373 156)">𝑋</text><text fill="#E8E8E8" font-family="Cambria Math,Cambria Math_MSFontService,sans-serif" font-weight="400" font-size="11" transform="translate(698.887 159)">1</text><g><text fill="#E8E8E8" font-family="Cambria Math,Cambria Math_MSFontService,sans-serif" font-weight="400" font-size="15" transform="translate(768.433 248)">𝑚</text></g><text fill="#E8E8E8" font-family="Cambria Math,Cambria Math_MSFontService,sans-serif" font-weight="400" font-size="11" transform="translate(780.767 251)">3</text><g><path d="M809.73 236.833C811.155 237.209 812.25 238.021 813.014 239.269 813.779 240.516 814.161 242.021 814.161 243.784 814.161 245.552 813.78 247.057 813.018 248.299 812.256 249.542 811.16 250.351 809.73 250.727L809.554 250.163C810.682 249.788 811.52 249.045 812.07 247.937 812.619 246.829 812.894 245.42 812.894 243.711 812.894 242.06 812.62 240.69 812.073 239.598 811.526 238.507 810.679 237.773 809.532 237.397ZM793.29 236.833 793.487 237.397C792.345 237.773 791.499 238.507 790.95 239.598 790.4 240.69 790.126 242.06 790.126 243.711 790.126 245.42 790.4 246.829 790.95 247.937 791.499 249.045 792.338 249.788 793.465 250.163L793.29 250.727C791.859 250.351 790.763 249.542 790.001 248.299 789.239 247.057 788.859 245.552 788.859 243.784 788.859 242.021 789.241 240.516 790.005 239.269 790.769 238.021 791.864 237.209 793.29 236.833Z" fill="#E8E8E8" fill-rule="evenodd"/></g><text fill="#E8E8E8" font-family="Cambria Math,Cambria Math_MSFontService,sans-serif" font-weight="400" font-size="15" transform="translate(793.627 248)">𝑋</text><text fill="#E8E8E8" font-family="Cambria Math,Cambria Math_MSFontService,sans-serif" font-weight="400" font-size="11" transform="translate(802.48 251)">2</text><g><text fill="#E8E8E8" font-family="Cambria Math,Cambria Math_MSFontService,sans-serif" font-weight="400" font-size="15" transform="translate(716.807 248)">𝑚</text></g><text fill="#E8E8E8" font-family="Cambria Math,Cambria Math_MSFontService,sans-serif" font-weight="400" font-size="11" transform="translate(729.14 251)">2</text><g><path d="M758.103 236.833C759.529 237.209 760.624 238.021 761.388 239.269 762.152 240.516 762.534 242.021 762.534 243.784 762.534 245.552 762.153 247.057 761.391 248.299 760.63 249.542 759.533 250.351 758.103 250.727L757.927 250.163C759.055 249.788 759.894 249.045 760.443 247.937 760.992 246.829 761.267 245.42 761.267 243.711 761.267 242.06 760.993 240.69 760.447 239.598 759.9 238.507 759.052 237.773 757.905 237.397ZM741.663 236.833 741.861 237.397C740.718 237.773 739.872 238.507 739.323 239.598 738.773 240.69 738.499 242.06 738.499 243.711 738.499 245.42 738.773 246.829 739.323 247.937 739.872 249.045 740.711 249.788 741.839 250.163L741.663 250.727C740.232 250.351 739.136 249.542 738.374 248.299 737.613 247.057 737.232 245.552 737.232 243.784 737.232 242.021 737.614 240.516 738.378 239.269 739.142 238.021 740.237 237.209 741.663 236.833Z" fill="#E8E8E8" fill-rule="evenodd"/></g><text fill="#E8E8E8" font-family="Cambria Math,Cambria Math_MSFontService,sans-serif" font-weight="400" font-size="15" transform="translate(742 248)">𝑋</text><text fill="#E8E8E8" font-family="Cambria Math,Cambria Math_MSFontService,sans-serif" font-weight="400" font-size="11" transform="translate(750.853 251)">2</text><g><text fill="#E8E8E8" font-family="Cambria Math,Cambria Math_MSFontService,sans-serif" font-weight="400" font-size="15" transform="translate(665.35 248)">𝑚</text></g><text fill="#E8E8E8" font-family="Cambria Math,Cambria Math_MSFontService,sans-serif" font-weight="400" font-size="11" transform="translate(677.343 251)">1</text><g><path d="M706.306 236.833C707.732 237.209 708.827 238.021 709.591 239.269 710.355 240.516 710.737 242.021 710.737 243.784 710.737 245.552 710.356 247.057 709.595 248.299 708.833 249.542 707.737 250.351 706.306 250.727L706.13 250.163C707.258 249.788 708.097 249.045 708.646 247.937 709.195 246.829 709.47 245.42 709.47 243.711 709.47 242.06 709.197 240.69 708.65 239.598 708.103 238.507 707.256 237.773 706.108 237.397ZM689.866 236.833 690.064 237.397C688.921 237.773 688.075 238.507 687.526 239.598 686.977 240.69 686.702 242.06 686.702 243.711 686.702 245.42 686.977 246.829 687.526 247.937 688.075 249.045 688.914 249.788 690.042 250.163L689.866 250.727C688.435 250.351 687.339 249.542 686.578 248.299 685.816 247.057 685.435 245.552 685.435 243.784 685.435 242.021 685.817 240.516 686.581 239.269 687.345 238.021 688.44 237.209 689.866 236.833Z" fill="#E8E8E8" fill-rule="evenodd"/></g><text fill="#E8E8E8" font-family="Cambria Math,Cambria Math_MSFontService,sans-serif" font-weight="400" font-size="15" transform="translate(690.203 248)">𝑋</text><text fill="#E8E8E8" font-family="Cambria Math,Cambria Math_MSFontService,sans-serif" font-weight="400" font-size="11" transform="translate(699.057 251)">2</text><g><text fill="#E8E8E8" font-family="Cambria Math,Cambria Math_MSFontService,sans-serif" font-weight="400" font-size="15" transform="translate(768.433 340)">𝑚</text></g><text fill="#E8E8E8" font-family="Cambria Math,Cambria Math_MSFontService,sans-serif" font-weight="400" font-size="11" transform="translate(780.767 343)">3</text><g><path d="M809.73 329.013C811.155 329.389 812.25 330.201 813.014 331.449 813.779 332.696 814.161 334.201 814.161 335.964 814.161 337.732 813.78 339.237 813.018 340.479 812.256 341.722 811.16 342.531 809.73 342.907L809.554 342.343C810.682 341.967 811.52 341.225 812.07 340.117 812.619 339.008 812.894 337.6 812.894 335.891 812.894 334.24 812.62 332.869 812.073 331.778 811.526 330.687 810.679 329.953 809.532 329.577ZM793.29 329.013 793.487 329.577C792.345 329.953 791.499 330.687 790.95 331.778 790.4 332.869 790.126 334.24 790.126 335.891 790.126 337.6 790.4 339.008 790.95 340.117 791.499 341.225 792.338 341.967 793.465 342.343L793.29 342.907C791.859 342.531 790.763 341.722 790.001 340.479 789.239 339.237 788.859 337.732 788.859 335.964 788.859 334.201 789.241 332.696 790.005 331.449 790.769 330.201 791.864 329.389 793.29 329.013Z" fill="#E8E8E8" fill-rule="evenodd"/></g><text fill="#E8E8E8" font-family="Cambria Math,Cambria Math_MSFontService,sans-serif" font-weight="400" font-size="15" transform="translate(793.627 340)">𝑋</text><text fill="#E8E8E8" font-family="Cambria Math,Cambria Math_MSFontService,sans-serif" font-weight="400" font-size="11" transform="translate(802.48 343)">3</text><g><text fill="#E8E8E8" font-family="Cambria Math,Cambria Math_MSFontService,sans-serif" font-weight="400" font-size="15" transform="translate(716.807 340)">𝑚</text></g><text fill="#E8E8E8" font-family="Cambria Math,Cambria Math_MSFontService,sans-serif" font-weight="400" font-size="11" transform="translate(729.14 343)">2</text><g><path d="M758.103 329.013C759.529 329.389 760.624 330.201 761.388 331.449 762.152 332.696 762.534 334.201 762.534 335.964 762.534 337.732 762.153 339.237 761.391 340.479 760.63 341.722 759.533 342.531 758.103 342.907L757.927 342.343C759.055 341.967 759.894 341.225 760.443 340.117 760.992 339.008 761.267 337.6 761.267 335.891 761.267 334.24 760.993 332.869 760.447 331.778 759.9 330.687 759.052 329.953 757.905 329.577ZM741.663 329.013 741.861 329.577C740.718 329.953 739.872 330.687 739.323 331.778 738.773 332.869 738.499 334.24 738.499 335.891 738.499 337.6 738.773 339.008 739.323 340.117 739.872 341.225 740.711 341.967 741.839 342.343L741.663 342.907C740.232 342.531 739.136 341.722 738.374 340.479 737.613 339.237 737.232 337.732 737.232 335.964 737.232 334.201 737.614 332.696 738.378 331.449 739.142 330.201 740.237 329.389 741.663 329.013Z" fill="#E8E8E8" fill-rule="evenodd"/></g><text fill="#E8E8E8" font-family="Cambria Math,Cambria Math_MSFontService,sans-serif" font-weight="400" font-size="15" transform="translate(742 340)">𝑋</text><text fill="#E8E8E8" font-family="Cambria Math,Cambria Math_MSFontService,sans-serif" font-weight="400" font-size="11" transform="translate(750.853 343)">3</text><g><text fill="#E8E8E8" font-family="Cambria Math,Cambria Math_MSFontService,sans-serif" font-weight="400" font-size="15" transform="translate(665.35 340)">𝑚</text></g><text fill="#E8E8E8" font-family="Cambria Math,Cambria Math_MSFontService,sans-serif" font-weight="400" font-size="11" transform="translate(677.343 343)">1</text><g><path d="M706.306 329.013C707.732 329.389 708.827 330.201 709.591 331.449 710.355 332.696 710.737 334.201 710.737 335.964 710.737 337.732 710.356 339.237 709.595 340.479 708.833 341.722 707.737 342.531 706.306 342.907L706.13 342.343C707.258 341.967 708.097 341.225 708.646 340.117 709.195 339.008 709.47 337.6 709.47 335.891 709.47 334.24 709.197 332.869 708.65 331.778 708.103 330.687 707.256 329.953 706.108 329.577ZM689.866 329.013 690.064 329.577C688.921 329.953 688.075 330.687 687.526 331.778 686.977 332.869 686.702 334.24 686.702 335.891 686.702 337.6 686.977 339.008 687.526 340.117 688.075 341.225 688.914 341.967 690.042 342.343L689.866 342.907C688.435 342.531 687.339 341.722 686.578 340.479 685.816 339.237 685.435 337.732 685.435 335.964 685.435 334.201 685.817 332.696 686.581 331.449 687.345 330.201 688.44 329.389 689.866 329.013Z" fill="#E8E8E8" fill-rule="evenodd"/></g><text fill="#E8E8E8" font-family="Cambria Math,Cambria Math_MSFontService,sans-serif" font-weight="400" font-size="15" transform="translate(690.203 340)">𝑋</text><text fill="#E8E8E8" font-family="Cambria Math,Cambria Math_MSFontService,sans-serif" font-weight="400" font-size="11" transform="translate(699.057 343)">3</text><path d="M897.44 104.58 949.066 104.58 949.066 196.76 897.44 196.76Z" fill="#4EA72E" fill-rule="evenodd"/><path d="M949.066 104.58 1000.69 104.58 1000.69 196.76 949.066 196.76Z" fill="#0F9ED5" fill-rule="evenodd"/><path d="M897.44 196.76 949.066 196.76 949.066 288.94 897.44 288.94Z" fill="#E97132" fill-rule="evenodd"/><path d="M949.066 196.76 1000.69 196.76 1000.69 288.94 949.066 288.94Z" fill="#4EA72E" fill-rule="evenodd"/><path d="M897.44 288.94 949.066 288.94 949.066 381.12 897.44 381.12Z" fill="#0F9ED5" fill-rule="evenodd"/><path d="M949.066 288.94 1000.69 288.94 1000.69 381.12 949.066 381.12Z" fill="#E97132" fill-rule="evenodd"/><path d="M949.066 103.914 949.066 381.787" stroke="#7F7F7F" stroke-width="1.33333" stroke-linejoin="round" stroke-miterlimit="10" fill="none" fill-rule="evenodd"/><path d="M896.773 104.58 1001.36 104.58" stroke="#7F7F7F" stroke-width="1.33333" stroke-linejoin="round" stroke-miterlimit="10" fill="none" fill-rule="evenodd"/><path d="M896.773 196.76 1001.36 196.76" stroke="#7F7F7F" stroke-width="1.33333" stroke-linejoin="round" stroke-miterlimit="10" fill="none" fill-rule="evenodd"/><path d="M896.773 288.94 1001.36 288.94" stroke="#7F7F7F" stroke-width="1.33333" stroke-linejoin="round" stroke-miterlimit="10" fill="none" fill-rule="evenodd"/><path d="M897.44 103.914 897.44 381.787" stroke="#7F7F7F" stroke-width="1.33333" stroke-linejoin="round" stroke-miterlimit="10" fill="none" fill-rule="evenodd"/><path d="M1000.69 103.914 1000.69 381.787" stroke="#7F7F7F" stroke-width="1.33333" stroke-linejoin="round" stroke-miterlimit="10" fill="none" fill-rule="evenodd"/><path d="M896.773 381.12 1001.36 381.12" stroke="#7F7F7F" stroke-width="1.33333" stroke-linejoin="round" stroke-miterlimit="10" fill="none" fill-rule="evenodd"/><text font-family="Cambria Math,Cambria Math_MSFontService,sans-serif" font-weight="400" font-size="24" transform="translate(964.54 93)">𝑚</text><text font-family="Cambria Math,Cambria Math_MSFontService,sans-serif" font-weight="400" font-size="24" transform="translate(915.866 93)">𝜋</text><text fill="#E8E8E8" font-family="Cambria Math,Cambria Math_MSFontService,sans-serif" font-weight="400" font-size="24" transform="translate(959.166 158)">𝑚</text><text fill="#E8E8E8" font-family="Cambria Math,Cambria Math_MSFontService,sans-serif" font-weight="400" font-size="18" transform="translate(979.333 163)">2</text><text fill="#E8E8E8" font-family="Cambria Math,Cambria Math_MSFontService,sans-serif" font-weight="400" font-size="24" transform="translate(910.54 158)">𝜋</text><text fill="#E8E8E8" font-family="Cambria Math,Cambria Math_MSFontService,sans-serif" font-weight="400" font-size="18" transform="translate(924.706 163)">3</text><text fill="#E8E8E8" font-family="Cambria Math,Cambria Math_MSFontService,sans-serif" font-weight="400" font-size="24" transform="translate(959.166 250)">𝑚</text><text fill="#E8E8E8" font-family="Cambria Math,Cambria Math_MSFontService,sans-serif" font-weight="400" font-size="18" transform="translate(979.333 255)">3</text><text fill="#E8E8E8" font-family="Cambria Math,Cambria Math_MSFontService,sans-serif" font-weight="400" font-size="24" transform="translate(910.82 250)">𝜋</text><text fill="#E8E8E8" font-family="Cambria Math,Cambria Math_MSFontService,sans-serif" font-weight="400" font-size="18" transform="translate(924.433 255)">1</text><text fill="#E8E8E8" font-family="Cambria Math,Cambria Math_MSFontService,sans-serif" font-weight="400" font-size="24" transform="translate(959.446 343)">𝑚</text><text fill="#E8E8E8" font-family="Cambria Math,Cambria Math_MSFontService,sans-serif" font-weight="400" font-size="18" transform="translate(979.06 348)">1</text><text fill="#E8E8E8" font-family="Cambria Math,Cambria Math_MSFontService,sans-serif" font-weight="400" font-size="24" transform="translate(910.54 343)">𝜋</text><text fill="#E8E8E8" font-family="Cambria Math,Cambria Math_MSFontService,sans-serif" font-weight="400" font-size="18" transform="translate(924.706 348)">2</text><text font-family="Aptos,Aptos_MSFontService,sans-serif" font-style="italic" font-weight="400" font-size="16" transform="translate(604.16 417)">In</text><text font-family="Aptos,Aptos_MSFontService,sans-serif" font-style="italic" font-weight="400" font-size="16" transform="translate(617.16 417)">-</text><text font-family="Aptos,Aptos_MSFontService,sans-serif" font-style="italic" font-weight="400" font-size="16" transform="translate(622.66 417)">sample</text><text font-family="Aptos,Aptos_MSFontService,sans-serif" font-style="italic" font-weight="400" font-size="16" transform="translate(604.16 436)">prediction</text><path d="M593.804 370.405 609.035 390.968 607.428 392.158 592.196 371.595ZM610.652 388.111 612.2 396.92 604.224 392.872Z"/><text font-family="Aptos,Aptos_MSFontService,sans-serif" font-style="italic" font-weight="400" font-size="16" transform="translate(424.4 417)">Not</text><text font-family="Aptos,Aptos_MSFontService,sans-serif" font-style="italic" font-weight="400" font-size="16" transform="translate(424.4 436)">selected</text><path d="M0.668908-0.743345 21.7139 18.1942 20.3761 19.6809-0.668908 0.743345ZM22.7295 15.0723 26.0006 23.397 17.3782 21.0191Z" transform="matrix(-1 0 0 1 482.001 374)"/><text font-family="Aptos,Aptos_MSFontService,sans-serif" font-style="italic" font-weight="400" font-size="16" transform="translate(518.84 418)">selected</text><path d="M542.974 369.773 547.859 390.698 545.911 391.153 541.026 370.227ZM550.477 388.718 548.401 397.417 542.687 390.536Z" fill="#0F9ED5"/><text font-family="IBM Plex Sans Medium,IBM Plex Sans Medium_MSFontService,sans-serif" font-weight="500" font-size="32" transform="translate(390.95 47)">Double cross</text><text font-family="IBM Plex Sans Medium,IBM Plex Sans Medium_MSFontService,sans-serif" font-weight="500" font-size="32" transform="translate(581.117 47)">-</text><text font-family="IBM Plex Sans Medium,IBM Plex Sans Medium_MSFontService,sans-serif" font-weight="500" font-size="32" transform="translate(593.95 47)">fitting</text><rect x="247" y="99" width="39" height="94" stroke="#042433" stroke-width="2" stroke-miterlimit="8" fill="#7F7F7F"/><text fill="#FFFFFF" font-family="Cambria Math,Cambria Math_MSFontService,sans-serif" font-weight="400" font-size="24" transform="translate(251.097 154)">𝐴</text><text fill="#FFFFFF" font-family="Cambria Math,Cambria Math_MSFontService,sans-serif" font-weight="400" font-size="18" transform="translate(265.71 158)">1</text><rect x="247" y="193" width="39" height="94" stroke="#042433" stroke-width="2" stroke-miterlimit="8" fill="#7F7F7F"/><text fill="#FFFFFF" font-family="Cambria Math,Cambria Math_MSFontService,sans-serif" font-weight="400" font-size="24" transform="translate(250.82 248)">𝐴</text><text fill="#FFFFFF" font-family="Cambria Math,Cambria Math_MSFontService,sans-serif" font-weight="400" font-size="18" transform="translate(265.987 253)">2</text><rect x="247" y="287" width="39" height="94" stroke="#042433" stroke-width="2" stroke-miterlimit="8" fill="#7F7F7F"/><text fill="#FFFFFF" font-family="Cambria Math,Cambria Math_MSFontService,sans-serif" font-weight="400" font-size="24" transform="translate(250.82 342)">𝐴</text><text fill="#FFFFFF" font-family="Cambria Math,Cambria Math_MSFontService,sans-serif" font-weight="400" font-size="18" transform="translate(265.987 347)">3</text><rect x="286" y="99" width="39" height="94" stroke="#042433" stroke-width="2" stroke-miterlimit="8" fill="#7F7F7F"/><text fill="#FFFFFF" font-family="Cambria Math,Cambria Math_MSFontService,sans-serif" font-weight="400" font-size="24" transform="translate(292.439 154)">𝑌</text><text fill="#FFFFFF" font-family="Cambria Math,Cambria Math_MSFontService,sans-serif" font-weight="400" font-size="18" transform="translate(302.446 158)">1</text><rect x="286" y="193" width="39" height="94" stroke="#042433" stroke-width="2" stroke-miterlimit="8" fill="#7F7F7F"/><text fill="#FFFFFF" font-family="Cambria Math,Cambria Math_MSFontService,sans-serif" font-weight="400" font-size="24" transform="translate(292.163 248)">𝑌</text><text fill="#FFFFFF" font-family="Cambria Math,Cambria Math_MSFontService,sans-serif" font-weight="400" font-size="18" transform="translate(302.723 253)">2</text><rect x="286" y="287" width="39" height="94" stroke="#042433" stroke-width="2" stroke-miterlimit="8" fill="#7F7F7F"/><text fill="#FFFFFF" font-family="Cambria Math,Cambria Math_MSFontService,sans-serif" font-weight="400" font-size="24" transform="translate(292.163 342)">𝑌</text><text fill="#FFFFFF" font-family="Cambria Math,Cambria Math_MSFontService,sans-serif" font-weight="400" font-size="18" transform="translate(302.723 347)">3</text></g></svg>