<svg width="934" height="711" xmlns="http://www.w3.org/2000/svg" xmlns:xlink="http://www.w3.org/1999/xlink" xml:space="preserve" overflow="hidden"><g transform="translate(-1572 -576)"><g><g><g><path d="M2093.39 741.172 2093.44 737.607 2093.44 716.982 1928.44 716.982 1928.44 744.482C1928.44 797.076 1944.25 843.166 1968.31 868.267L2053.56 868.267C2061.56 859.722 2068.17 849.979 2073.16 839.392L2075.05 834.858C2100.3 843.116 2127.46 829.345 2135.71 804.099 2143.97 778.854 2130.2 751.694 2104.95 743.436 2101.21 742.21 2097.32 741.449 2093.39 741.172ZM2050.56 861.395 1971.32 861.395C1949.06 836.508 1935.31 792.095 1935.31 744.486L1935.31 723.861 1988.59 723.861 1988.59 737.552 1983.44 737.552 1966.25 754.74 1966.25 806.313 2017.81 806.313 2017.81 754.75 2000.62 737.563 1995.47 737.563 1995.47 723.85 2086.56 723.85 2086.56 737.494 2086.22 758.315C2085.13 778.648 2081.24 798.733 2074.66 818L2066.9 836.563C2062.62 845.552 2057.12 853.909 2050.56 861.395ZM1997.78 744.417 2010.94 757.583 2010.94 799.438 1973.12 799.438 1973.12 757.583 1986.29 744.417ZM2090 830.375C2085.83 830.38 2081.69 829.752 2077.71 828.512L2081.06 820.475C2087.93 800.503 2091.98 779.672 2093.09 758.583L2093.27 748.04C2115.97 749.851 2132.9 769.722 2131.09 792.422 2129.38 813.85 2111.5 830.37 2090 830.375Z" stroke="#000000" stroke-width="13.75"/><path d="M1972.18 687.413C1970.86 688.615 1970.77 690.657 1971.97 691.973 1972.04 692.045 1972.11 692.115 1972.18 692.181 1973.37 693.496 1975.41 693.595 1976.72 692.4 1976.8 692.331 1976.87 692.257 1976.94 692.181 1984.85 684.061 1984.85 671.12 1976.94 663 1974.27 660.338 1972.79 656.702 1972.85 652.928 1972.89 649.421 1974.37 646.085 1976.94 643.698 1978.31 642.428 1978.38 640.295 1977.11 638.932 1975.84 637.57 1973.71 637.495 1972.35 638.764 1972.29 638.818 1972.23 638.873 1972.18 638.93 1964.27 647.05 1964.27 659.991 1972.18 668.111 1977.3 673.528 1977.3 681.996 1972.18 687.413Z" stroke="#000000" stroke-width="13.75"/><path d="M2007.12 666.788C2005.8 667.99 2005.71 670.032 2006.91 671.348 2006.98 671.42 2007.05 671.49 2007.12 671.556 2008.31 672.871 2010.35 672.97 2011.66 671.775 2011.74 671.706 2011.81 671.632 2011.88 671.556 2019.79 663.436 2019.79 650.495 2011.88 642.375 2009.21 639.713 2007.73 636.077 2007.79 632.303 2007.83 628.795 2009.31 625.46 2011.88 623.073 2013.25 621.803 2013.32 619.67 2012.05 618.307 2010.78 616.945 2008.65 616.87 2007.28 618.139 2007.23 618.193 2007.17 618.248 2007.12 618.305 1999.21 626.425 1999.21 639.366 2007.12 647.486 2012.24 652.902 2012.24 661.372 2007.12 666.788Z" stroke="#000000" stroke-width="13.75"/><path d="M2044.37 687.413C2043.05 688.615 2042.96 690.657 2044.16 691.973 2044.23 692.045 2044.29 692.115 2044.37 692.181 2045.56 693.496 2047.6 693.595 2048.91 692.4 2048.99 692.331 2049.06 692.257 2049.13 692.181 2057.04 684.061 2057.04 671.12 2049.13 663 2046.46 660.338 2044.98 656.702 2045.03 652.928 2045.08 649.421 2046.56 646.085 2049.13 643.698 2050.49 642.428 2050.57 640.295 2049.3 638.932 2048.03 637.57 2045.9 637.495 2044.53 638.764 2044.48 638.818 2044.42 638.873 2044.37 638.93 2036.46 647.05 2036.46 659.991 2044.37 668.111 2049.48 673.528 2049.48 681.996 2044.37 687.413Z" stroke="#000000" stroke-width="13.75"/></g></g></g><path d="M1572 1179C1572 1119.35 1620.35 1071 1680 1071 1739.65 1071 1788 1119.35 1788 1179 1788 1238.65 1739.65 1287 1680 1287 1620.35 1287 1572 1238.65 1572 1179Z" fill="#F29746" fill-rule="evenodd"/><path d="M2290 1178C2290 1118.35 2338.35 1070 2398 1070 2457.65 1070 2506 1118.35 2506 1178 2506 1237.65 2457.65 1286 2398 1286 2338.35 1286 2290 1237.65 2290 1178Z" fill="#BC604E" fill-rule="evenodd"/><path d="M0.00559434-5.15625 455.206-4.66237 455.195 5.65012-0.00559434 5.15625ZM450.073-25.293 501.607 0.544226 450.017 26.2695Z" fill="#AFABAB" transform="matrix(1 0 0 -1 1788 1178.54)"/><text font-family="Congenial Black,Congenial Black_MSFontService,sans-serif" font-weight="900" font-size="101" transform="matrix(1 0 0 1 1767.73 1068)">CausaliTe</text><text font-family="Congenial Black,Congenial Black_MSFontService,sans-serif" font-weight="900" font-size="101" transform="matrix(1 0 0 1 2243.25 1068)">a</text><path d="M0.111948-6.87409 16.4409-6.60816 32.8448-5.81643 49.1796-4.51792 65.4142-2.72973 81.5176-0.46883 97.4589 2.24791 113.207 5.40372 128.732 8.98197 144.001 12.9661 158.985 17.3397 173.652 22.0864 187.972 27.1902 201.914 32.635 215.446 38.405 228.54 44.4847 241.163 50.8587 253.285 57.512 264.875 64.43 275.904 71.5987 286.339 79.0043 296.151 86.6339 305.307 94.4754 313.777 102.517 321.527 110.75 328.524 119.163 334.731 127.748 340.375 136.926 343.696 146.841 330.657 151.208 327.587 142.04 328.25 143.458 323.153 135.169 323.438 135.596 317.518 127.408 317.803 127.776 311.09 119.704 311.371 120.021 303.897 112.083 304.169 112.356 295.967 104.568 296.229 104.804 287.33 97.1832 287.582 97.3886 278.017 89.9511 278.259 90.1305 268.06 82.8932 268.292 83.0507 257.492 76.0303 257.715 76.1694 246.344 69.3825 246.56 69.506 234.65 62.9693 234.859 63.0794 222.443 56.8096 222.646 56.9082 209.754 50.922 209.953 51.0106 196.618 45.3247 196.813 45.4045 183.066 40.0355 183.259 40.1076 169.131 35.0723 169.322 35.1373 154.846 30.4523 155.037 30.511 140.243 26.193 140.434 26.2457 125.356 22.3114 125.547 22.3585 110.215 18.8246 110.409 18.8663 94.8549 15.7494 95.0508 15.7857 79.307 13.1027 79.5061 13.1336 63.6038 10.901 63.807 10.9264 47.778 9.16086 47.9859 9.18056 31.8618 7.89881 32.0752 7.91243 15.8877 7.13114 16.1072 7.13823-0.111948 6.87409ZM355.302 137.02 346.121 182.216 315.473 147.753Z" fill="#AFABAB" transform="matrix(-1 1.22465e-16 1.22465e-16 1 2026.12 888)"/><path d="M2022.1 881.126 2039.84 881.391 2057.64 882.179 2075.36 883.473 2092.98 885.254 2110.46 887.506 2127.76 890.212 2144.85 893.356 2161.7 896.92 2178.28 900.889 2194.54 905.246 2210.46 909.975 2226 915.06 2241.13 920.484 2255.82 926.232 2270.03 932.288 2283.73 938.637 2296.89 945.265 2309.47 952.156 2321.44 959.296 2332.76 966.673 2343.41 974.273 2353.35 982.085 2362.54 990.098 2370.96 998.302 2378.56 1006.69 2385.31 1015.26 2391.45 1024.43 2395.15 1034.49 2382.24 1039.23 2378.83 1029.95 2379.57 1031.4 2374.03 1023.13 2374.34 1023.56 2367.9 1015.39 2368.21 1015.75 2360.91 1007.69 2361.21 1008 2353.08 1000.08 2353.36 1000.34 2344.45 992.565 2344.71 992.787 2335.04 985.182 2335.29 985.372 2324.89 977.95 2325.13 978.115 2314.04 970.892 2314.27 971.035 2302.53 964.029 2302.75 964.154 2290.39 957.381 2290.6 957.491 2277.65 950.968 2277.85 951.065 2264.35 944.808 2264.54 944.895 2250.53 938.921 2250.72 938.999 2236.22 933.324 2236.4 933.394 2221.45 928.036 2221.64 928.098 2206.27 923.073 2206.45 923.129 2190.71 918.454 2190.89 918.504 2174.81 914.195 2174.98 914.24 2158.59 910.314 2158.77 910.354 2142.1 906.827 2142.28 906.862 2125.36 903.752 2125.55 903.783 2108.43 901.105 2108.61 901.131 2091.32 898.903 2091.51 898.924 2074.08 897.163 2074.27 897.179 2056.74 895.9 2056.93 895.911 2039.33 895.132 2039.53 895.138 2021.9 894.874ZM2406.56 1024.47 2398.35 1069.85 2366.97 1036.05Z" fill="#AFABAB"/></g></svg>