<?xml version="1.0" encoding="utf-8" standalone="no"?>
<!DOCTYPE svg PUBLIC "-//W3C//DTD SVG 1.1//EN"
  "http://www.w3.org/Graphics/SVG/1.1/DTD/svg11.dtd">
<svg xmlns:xlink="http://www.w3.org/1999/xlink" width="432pt" height="288pt" viewBox="0 0 432 288" xmlns="http://www.w3.org/2000/svg" version="1.1">
 <metadata>
  <rdf:RDF xmlns:dc="http://purl.org/dc/elements/1.1/" xmlns:cc="http://creativecommons.org/ns#" xmlns:rdf="http://www.w3.org/1999/02/22-rdf-syntax-ns#">
   <cc:Work>
    <dc:type rdf:resource="http://purl.org/dc/dcmitype/StillImage"/>
    <dc:date>2023-12-22T15:16:42.740178</dc:date>
    <dc:format>image/svg+xml</dc:format>
    <dc:creator>
     <cc:Agent>
      <dc:title>Matplotlib v3.5.1, https://matplotlib.org/</dc:title>
     </cc:Agent>
    </dc:creator>
   </cc:Work>
  </rdf:RDF>
 </metadata>
 <defs>
  <style type="text/css">*{stroke-linejoin: round; stroke-linecap: butt}</style>
 </defs>
 <g id="figure_1">
  <g id="patch_1">
   <path d="M 0 288 
L 432 288 
L 432 0 
L 0 0 
z
"/>
  </g>
  <g id="axes_1">
   <g id="patch_2">
    <path d="M 54 252 
L 221.4 252 
L 221.4 34.56 
L 54 34.56 
z
"/>
   </g>
   <g id="patch_3">
    <path d="M 54 34.56 
L 213.428571 34.56 
L 213.428571 63.448457 
L 54 63.448457 
z
" clip-path="url(#pe8e368854e)" style="fill: #c44441"/>
   </g>
   <g id="patch_4">
    <path d="M 54 65.622857 
L 77.914286 65.622857 
L 77.914286 94.511314 
L 54 94.511314 
z
" clip-path="url(#pe8e368854e)" style="fill: #c44441"/>
   </g>
   <g id="patch_5">
    <path d="M 54 96.685714 
L 69.942857 96.685714 
L 69.942857 125.574171 
L 54 125.574171 
z
" clip-path="url(#pe8e368854e)" style="fill: #c44441"/>
   </g>
   <g id="patch_6">
    <path d="M 54 127.748571 
L 181.542857 127.748571 
L 181.542857 156.637029 
L 54 156.637029 
z
" clip-path="url(#pe8e368854e)" style="fill: #c44441"/>
   </g>
   <g id="patch_7">
    <path d="M 54 158.811429 
L 73.131429 158.811429 
L 73.131429 187.699886 
L 54 187.699886 
z
" clip-path="url(#pe8e368854e)" style="fill: #c44441"/>
   </g>
   <g id="patch_8">
    <path d="M 54 189.874286 
L 68.348571 189.874286 
L 68.348571 218.762743 
L 54 218.762743 
z
" clip-path="url(#pe8e368854e)" style="fill: #c44441"/>
   </g>
   <g id="patch_9">
    <path d="M 54 220.937143 
L 200.674286 220.937143 
L 200.674286 249.8256 
L 54 249.8256 
z
" clip-path="url(#pe8e368854e)" style="fill: #c44441"/>
   </g>
   <g id="patch_10">
    <path d="M 54 252 
L 54 34.56 
" style="fill: none; stroke: #000000; stroke-width: 3; stroke-linejoin: miter; stroke-linecap: square"/>
   </g>
  </g>
  <g id="axes_2">
   <g id="patch_11">
    <path d="M 221.4 252 
L 388.8 252 
L 388.8 34.56 
L 221.4 34.56 
z
"/>
   </g>
   <g id="line2d_1">
    <path d="M 380.828571 252 
L 380.549985 249.803636 
L 380.248489 247.607273 
L 379.922199 245.410909 
L 379.569075 243.214545 
L 379.186911 241.018182 
L 378.773318 238.821818 
L 378.325713 236.625455 
L 377.841298 234.429091 
L 377.317046 232.232727 
L 376.74968 230.036364 
L 376.135656 227.84 
L 375.471136 225.643636 
L 374.751967 223.447273 
L 373.973655 221.250909 
L 373.131337 219.054545 
L 372.219749 216.858182 
L 371.233194 214.661818 
L 370.165507 212.465455 
L 369.010016 210.269091 
L 367.7595 208.072727 
L 366.406145 205.876364 
L 364.941493 203.68 
L 363.356391 201.483636 
L 361.640935 199.287273 
L 359.784403 197.090909 
L 357.775195 194.894545 
L 355.600754 192.698182 
L 353.247492 190.501818 
L 350.700704 188.305455 
L 347.944474 186.109091 
L 344.961578 183.912727 
L 341.733376 181.716364 
L 338.239694 179.52 
L 334.4587 177.323636 
L 330.366766 175.127273 
L 325.938322 172.930909 
L 321.145692 170.734545 
L 315.958928 168.538182 
L 310.345617 166.341818 
L 304.270681 164.145455 
L 297.696156 161.949091 
L 290.580958 159.752727 
L 282.880623 157.556364 
L 274.547031 155.36 
L 265.528104 153.163636 
L 255.767482 150.967273 
L 245.20417 148.770909 
L 233.772156 146.574545 
L 221.4 144.378182 
L 221.4 142.181818 
L 233.772156 139.985455 
L 245.20417 137.789091 
L 255.767482 135.592727 
L 265.528104 133.396364 
L 274.547031 131.2 
L 282.880623 129.003636 
L 290.580958 126.807273 
L 297.696156 124.610909 
L 304.270681 122.414545 
L 310.345617 120.218182 
L 315.958928 118.021818 
L 321.145692 115.825455 
L 325.938322 113.629091 
L 330.366766 111.432727 
L 334.4587 109.236364 
L 338.239694 107.04 
L 341.733376 104.843636 
L 344.961578 102.647273 
L 347.944474 100.450909 
L 350.700704 98.254545 
L 353.247492 96.058182 
L 355.600754 93.861818 
L 357.775195 91.665455 
L 359.784403 89.469091 
L 361.640935 87.272727 
L 363.356391 85.076364 
L 364.941493 82.88 
L 366.406145 80.683636 
L 367.7595 78.487273 
L 369.010016 76.290909 
L 370.165507 74.094545 
L 371.233194 71.898182 
L 372.219749 69.701818 
L 373.131337 67.505455 
L 373.973655 65.309091 
L 374.751967 63.112727 
L 375.471136 60.916364 
L 376.135656 58.72 
L 376.74968 56.523636 
L 377.317046 54.327273 
L 377.841298 52.130909 
L 378.325713 49.934545 
L 378.773318 47.738182 
L 379.186911 45.541818 
L 379.569075 43.345455 
L 379.922199 41.149091 
L 380.248489 38.952727 
L 380.549985 36.756364 
L 380.828571 34.56 
" clip-path="url(#p0619dfec71)" style="fill: none; stroke: #c44441; stroke-width: 10; stroke-linecap: square"/>
   </g>
   <g id="patch_12">
    <path d="M 221.4 252 
L 221.4 34.56 
" style="fill: none; stroke: #000000; stroke-width: 3; stroke-linejoin: miter; stroke-linecap: square"/>
   </g>
  </g>
 </g>
 <defs>
  <clipPath id="pe8e368854e">
   <rect x="54" y="34.56" width="167.4" height="217.44"/>
  </clipPath>
  <clipPath id="p0619dfec71">
   <rect x="221.4" y="34.56" width="167.4" height="217.44"/>
  </clipPath>
 </defs>
</svg>
